<svg xmlns="http://www.w3.org/2000/svg" xmlns:xlink="http://www.w3.org/1999/xlink" contentStyleType="text/css" height="416px" preserveAspectRatio="none" style="width:439px;height:416px;background:#FFFFFF;" version="1.1" viewBox="0 0 439 416" width="439px" zoomAndPan="magnify"><defs/><g><ellipse cx="212.4746" cy="20" fill="#222222" rx="10" ry="10" style="stroke:#222222;stroke-width:1;"/><rect fill="#F1F1F1" height="33.9688" rx="12.5" ry="12.5" style="stroke:#181818;stroke-width:0.5;" width="373.1504" x="25.8994" y="50"/><text fill="#000000" font-family="sans-serif" font-size="12" lengthAdjust="spacing" textLength="353.1504" x="35.8994" y="71.1387">append_to_buffer(char *buffer, int *p_buffer_index, char c)</text><polygon fill="#F1F1F1" points="143.7429,103.9688,281.2063,103.9688,293.2063,115.9688,281.2063,127.9688,143.7429,127.9688,131.7429,115.9688,143.7429,103.9688" style="stroke:#181818;stroke-width:0.5;"/><ellipse cx="149.2429" cy="114.8711" fill="#000000" rx="2.5" ry="2.5" style="stroke:#000000;stroke-width:0;"/><text fill="#000000" font-family="sans-serif" font-size="11" lengthAdjust="spacing" textLength="125.4634" x="155.7429" y="119.7769">p_buffer_index &lt; 1024</text><text fill="#000000" font-family="sans-serif" font-size="11" lengthAdjust="spacing" textLength="19.0083" x="112.7346" y="113.3745">yes</text><text fill="#000000" font-family="sans-serif" font-size="11" lengthAdjust="spacing" textLength="13.7017" x="293.2063" y="113.3745">no</text><rect fill="#F1F1F1" height="33.9688" rx="12.5" ry="12.5" style="stroke:#181818;stroke-width:0.5;" width="184.2793" x="11" y="137.9688"/><text fill="#000000" font-family="sans-serif" font-size="12" lengthAdjust="spacing" textLength="164.2793" x="21" y="159.1074">buffer[*p_buffer_index] = c</text><rect fill="#F1F1F1" height="33.9688" rx="12.5" ry="12.5" style="stroke:#181818;stroke-width:0.5;" width="144.1191" x="31.0801" y="191.9375"/><text fill="#000000" font-family="sans-serif" font-size="12" lengthAdjust="spacing" textLength="124.1191" x="41.0801" y="213.0762">(*p_buffer_index)++</text><rect fill="#F1F1F1" height="33.9688" rx="12.5" ry="12.5" style="stroke:#181818;stroke-width:0.5;" width="213.0605" x="215.2793" y="137.9688"/><text fill="#000000" font-family="sans-serif" font-size="12" lengthAdjust="spacing" textLength="193.0605" x="225.2793" y="159.1074">write(1, buffer, *p_buffer_index)</text><rect fill="#F1F1F1" height="33.9688" rx="12.5" ry="12.5" style="stroke:#181818;stroke-width:0.5;" width="145.9648" x="248.8271" y="191.9375"/><ellipse cx="264.3271" cy="208.4063" fill="#000000" rx="2.5" ry="2.5" style="stroke:#000000;stroke-width:0;"/><text fill="#000000" font-family="sans-serif" font-size="12" lengthAdjust="spacing" textLength="113.9648" x="270.8271" y="213.0762">p_buffer_index = 0</text><rect fill="#F1F1F1" height="33.9688" rx="12.5" ry="12.5" style="stroke:#181818;stroke-width:0.5;" width="184.2793" x="229.6699" y="245.9063"/><text fill="#000000" font-family="sans-serif" font-size="12" lengthAdjust="spacing" textLength="164.2793" x="239.6699" y="267.0449">buffer[*p_buffer_index] = c</text><rect fill="#F1F1F1" height="33.9688" rx="12.5" ry="12.5" style="stroke:#181818;stroke-width:0.5;" width="144.1191" x="249.75" y="299.875"/><text fill="#000000" font-family="sans-serif" font-size="12" lengthAdjust="spacing" textLength="124.1191" x="259.75" y="321.0137">(*p_buffer_index)++</text><polygon fill="#F1F1F1" points="212.4746,339.8438,224.4746,351.8438,212.4746,363.8438,200.4746,351.8438,212.4746,339.8438" style="stroke:#181818;stroke-width:0.5;"/><ellipse cx="212.4746" cy="394.8438" fill="none" rx="11" ry="11" style="stroke:#222222;stroke-width:1;"/><ellipse cx="212.4746" cy="394.8438" fill="#222222" rx="6" ry="6" style="stroke:#222222;stroke-width:1;"/><line style="stroke:#181818;stroke-width:1;" x1="212.4746" x2="212.4746" y1="30" y2="50"/><polygon fill="#181818" points="208.4746,40,212.4746,50,216.4746,40,212.4746,44" style="stroke:#181818;stroke-width:1;"/><line style="stroke:#181818;stroke-width:1;" x1="103.1396" x2="103.1396" y1="171.9375" y2="191.9375"/><polygon fill="#181818" points="99.1396,181.9375,103.1396,191.9375,107.1396,181.9375,103.1396,185.9375" style="stroke:#181818;stroke-width:1;"/><line style="stroke:#181818;stroke-width:1;" x1="321.8096" x2="321.8096" y1="171.9375" y2="191.9375"/><polygon fill="#181818" points="317.8096,181.9375,321.8096,191.9375,325.8096,181.9375,321.8096,185.9375" style="stroke:#181818;stroke-width:1;"/><line style="stroke:#181818;stroke-width:1;" x1="321.8096" x2="321.8096" y1="225.9063" y2="245.9063"/><polygon fill="#181818" points="317.8096,235.9063,321.8096,245.9063,325.8096,235.9063,321.8096,239.9063" style="stroke:#181818;stroke-width:1;"/><line style="stroke:#181818;stroke-width:1;" x1="321.8096" x2="321.8096" y1="279.875" y2="299.875"/><polygon fill="#181818" points="317.8096,289.875,321.8096,299.875,325.8096,289.875,321.8096,293.875" style="stroke:#181818;stroke-width:1;"/><line style="stroke:#181818;stroke-width:1;" x1="131.7429" x2="103.1396" y1="115.9688" y2="115.9688"/><line style="stroke:#181818;stroke-width:1;" x1="103.1396" x2="103.1396" y1="115.9688" y2="137.9688"/><polygon fill="#181818" points="99.1396,127.9688,103.1396,137.9688,107.1396,127.9688,103.1396,131.9688" style="stroke:#181818;stroke-width:1;"/><line style="stroke:#181818;stroke-width:1;" x1="293.2063" x2="321.8096" y1="115.9688" y2="115.9688"/><line style="stroke:#181818;stroke-width:1;" x1="321.8096" x2="321.8096" y1="115.9688" y2="137.9688"/><polygon fill="#181818" points="317.8096,127.9688,321.8096,137.9688,325.8096,127.9688,321.8096,131.9688" style="stroke:#181818;stroke-width:1;"/><line style="stroke:#181818;stroke-width:1;" x1="103.1396" x2="103.1396" y1="225.9063" y2="351.8438"/><line style="stroke:#181818;stroke-width:1;" x1="103.1396" x2="200.4746" y1="351.8438" y2="351.8438"/><polygon fill="#181818" points="190.4746,347.8438,200.4746,351.8438,190.4746,355.8438,194.4746,351.8438" style="stroke:#181818;stroke-width:1;"/><line style="stroke:#181818;stroke-width:1;" x1="321.8096" x2="321.8096" y1="333.8438" y2="351.8438"/><line style="stroke:#181818;stroke-width:1;" x1="321.8096" x2="224.4746" y1="351.8438" y2="351.8438"/><polygon fill="#181818" points="234.4746,347.8438,224.4746,351.8438,234.4746,355.8438,230.4746,351.8438" style="stroke:#181818;stroke-width:1;"/><line style="stroke:#181818;stroke-width:1;" x1="212.4746" x2="212.4746" y1="83.9688" y2="103.9688"/><polygon fill="#181818" points="208.4746,93.9688,212.4746,103.9688,216.4746,93.9688,212.4746,97.9688" style="stroke:#181818;stroke-width:1;"/><line style="stroke:#181818;stroke-width:1;" x1="212.4746" x2="212.4746" y1="363.8438" y2="383.8438"/><polygon fill="#181818" points="208.4746,373.8438,212.4746,383.8438,216.4746,373.8438,212.4746,377.8438" style="stroke:#181818;stroke-width:1;"/><!--SRC=[fOx13i8W44JlVCKSeUsXDPwA_H9Z29Ob9J6Km1hrxpMsNhYwjysycRp2DhCGeqs9eZEycklTUyfoNcn6ipqTGcGqQSzCY8wU7Rx8hBG87h9ASSBG7uuAl524V55H0fyRD-XSuHTCcFL6r5EgRRMWMo78kEuhZnoOvD3X9rXtzgtQQaAl__E8BdXHU4rl]--></g></svg>