<svg xmlns="http://www.w3.org/2000/svg" xmlns:xlink="http://www.w3.org/1999/xlink" contentStyleType="text/css" height="352px" preserveAspectRatio="none" style="width:316px;height:352px;background:#FFFFFF;" version="1.1" viewBox="0 0 316 352" width="316px" zoomAndPan="magnify"><defs/><g><ellipse cx="158.2002" cy="20" fill="#222222" rx="10" ry="10" style="stroke:#222222;stroke-width:1;"/><rect fill="#F1F1F1" height="33.9688" rx="12.5" ry="12.5" style="stroke:#181818;stroke-width:0.5;" width="294.4004" x="11" y="50"/><text fill="#000000" font-family="sans-serif" font-size="12" lengthAdjust="spacing" textLength="274.4004" x="21" y="71.1387">flush_buffer(char *buffer, int *p_buffer_index)</text><rect fill="#F1F1F1" height="33.9688" rx="12.5" ry="12.5" style="stroke:#181818;stroke-width:0.5;" width="213.0605" x="51.6699" y="152.3711"/><text fill="#000000" font-family="sans-serif" font-size="12" lengthAdjust="spacing" textLength="193.0605" x="61.6699" y="173.5098">write(1, buffer, *p_buffer_index)</text><rect fill="#F1F1F1" height="33.9688" rx="12.5" ry="12.5" style="stroke:#181818;stroke-width:0.5;" width="145.9648" x="85.2178" y="221.3398"/><ellipse cx="100.7178" cy="237.8086" fill="#000000" rx="2.5" ry="2.5" style="stroke:#000000;stroke-width:0;"/><text fill="#000000" font-family="sans-serif" font-size="12" lengthAdjust="spacing" textLength="113.9648" x="107.2178" y="242.4785">p_buffer_index = 0</text><polygon fill="#F1F1F1" points="99.9663,103.9688,216.4341,103.9688,228.4341,115.9688,216.4341,127.9688,99.9663,127.9688,87.9663,115.9688,99.9663,103.9688" style="stroke:#181818;stroke-width:0.5;"/><text fill="#000000" font-family="sans-serif" font-size="11" lengthAdjust="spacing" textLength="19.0083" x="162.2002" y="138.1792">yes</text><ellipse cx="105.4663" cy="114.8711" fill="#000000" rx="2.5" ry="2.5" style="stroke:#000000;stroke-width:0;"/><text fill="#000000" font-family="sans-serif" font-size="11" lengthAdjust="spacing" textLength="104.4678" x="111.9663" y="119.7769">p_buffer_index &gt; 0</text><polygon fill="#F1F1F1" points="158.2002,275.3086,170.2002,287.3086,158.2002,299.3086,146.2002,287.3086,158.2002,275.3086" style="stroke:#181818;stroke-width:0.5;"/><ellipse cx="158.2002" cy="330.3086" fill="none" rx="11" ry="11" style="stroke:#222222;stroke-width:1;"/><ellipse cx="158.2002" cy="330.3086" fill="#222222" rx="6" ry="6" style="stroke:#222222;stroke-width:1;"/><line style="stroke:#181818;stroke-width:1;" x1="158.2002" x2="158.2002" y1="30" y2="50"/><polygon fill="#181818" points="154.2002,40,158.2002,50,162.2002,40,158.2002,44" style="stroke:#181818;stroke-width:1;"/><line style="stroke:#181818;stroke-width:1;" x1="158.2002" x2="158.2002" y1="186.3398" y2="221.3398"/><polygon fill="#181818" points="154.2002,211.3398,158.2002,221.3398,162.2002,211.3398,158.2002,215.3398" style="stroke:#181818;stroke-width:1;"/><line style="stroke:#181818;stroke-width:1;" x1="158.2002" x2="158.2002" y1="127.9688" y2="152.3711"/><polygon fill="#181818" points="154.2002,142.3711,158.2002,152.3711,162.2002,142.3711,158.2002,146.3711" style="stroke:#181818;stroke-width:1;"/><line style="stroke:#181818;stroke-width:1;" x1="228.4341" x2="274.7305" y1="115.9688" y2="115.9688"/><polygon fill="#181818" points="270.7305,193.8398,274.7305,203.8398,278.7305,193.8398,274.7305,197.8398" style="stroke:#181818;stroke-width:1;"/><line style="stroke:#181818;stroke-width:1;" x1="274.7305" x2="274.7305" y1="115.9688" y2="287.3086"/><line style="stroke:#181818;stroke-width:1;" x1="274.7305" x2="170.2002" y1="287.3086" y2="287.3086"/><polygon fill="#181818" points="180.2002,283.3086,170.2002,287.3086,180.2002,291.3086,176.2002,287.3086" style="stroke:#181818;stroke-width:1;"/><line style="stroke:#181818;stroke-width:1;" x1="158.2002" x2="158.2002" y1="255.3086" y2="275.3086"/><polygon fill="#181818" points="154.2002,265.3086,158.2002,275.3086,162.2002,265.3086,158.2002,269.3086" style="stroke:#181818;stroke-width:1;"/><line style="stroke:#181818;stroke-width:1;" x1="158.2002" x2="158.2002" y1="83.9688" y2="103.9688"/><polygon fill="#181818" points="154.2002,93.9688,158.2002,103.9688,162.2002,93.9688,158.2002,97.9688" style="stroke:#181818;stroke-width:1;"/><line style="stroke:#181818;stroke-width:1;" x1="158.2002" x2="158.2002" y1="299.3086" y2="319.3086"/><polygon fill="#181818" points="154.2002,309.3086,158.2002,319.3086,162.2002,309.3086,158.2002,313.3086" style="stroke:#181818;stroke-width:1;"/><!--SRC=[POmx3eCm44JxFSMKDgA05XIkWaZObLUA76Gl8jm-Y4z3ffjvevTjI4RKo7lEeN_E8fpSAmm9nL5AQ3GKqybwZID_VKigSBSL7IeF2npXLiwUiALPaXgxkiJb-tVjlxliWQebZgCAPVjCFm00]--></g></svg>