<svg xmlns="http://www.w3.org/2000/svg" xmlns:xlink="http://www.w3.org/1999/xlink" contentStyleType="text/css" height="889px" preserveAspectRatio="none" style="width:724px;height:889px;background:#FFFFFF;" version="1.1" viewBox="0 0 724 889" width="724px" zoomAndPan="magnify"><defs/><g><ellipse cx="362.0039" cy="20" fill="#222222" rx="10" ry="10" style="stroke:#222222;stroke-width:1;"/><rect fill="#F1F1F1" height="33.9688" rx="12.5" ry="12.5" style="stroke:#181818;stroke-width:0.5;" width="702.0078" x="11" y="50"/><text fill="#000000" font-family="sans-serif" font-size="12" lengthAdjust="spacing" textLength="682.0078" x="21" y="71.1387">handle_format(const char *current_format_char, handler_t *types, va_list *args, char *buffer, int *p_buffer_index)</text><rect fill="#F1F1F1" height="33.9688" rx="12.5" ry="12.5" style="stroke:#181818;stroke-width:0.5;" width="128.6973" x="297.6553" y="103.9688"/><text fill="#000000" font-family="sans-serif" font-size="12" lengthAdjust="spacing" textLength="108.6973" x="307.6553" y="125.1074">Initialize variables</text><rect fill="#F1F1F1" height="33.9688" rx="12.5" ry="12.5" style="stroke:#181818;stroke-width:0.5;" width="161.8555" x="281.0762" y="250.3398"/><text fill="#000000" font-family="sans-serif" font-size="12" lengthAdjust="spacing" textLength="141.8555" x="291.0762" y="271.4785">Set is_unknown to false</text><rect fill="#F1F1F1" height="33.9688" rx="12.5" ry="12.5" style="stroke:#181818;stroke-width:0.5;" width="465.4414" x="129.2832" y="304.3086"/><text fill="#000000" font-family="sans-serif" font-size="12" lengthAdjust="spacing" textLength="445.4414" x="139.2832" y="325.4473">Call the corresponding print function and update printed characters count</text><rect fill="#F1F1F1" height="33.9688" rx="12.5" ry="12.5" style="stroke:#181818;stroke-width:0.5;" width="107.8086" x="308.0996" y="361.2773"/><text fill="#000000" font-family="sans-serif" font-size="12" lengthAdjust="spacing" textLength="87.8086" x="318.0996" y="382.416">Break the loop</text><rect fill="#F1F1F1" height="33.9688" rx="12.5" ry="12.5" style="stroke:#181818;stroke-width:0.5;" width="80.2344" x="321.8867" y="416.7617"/><text fill="#000000" font-family="sans-serif" font-size="12" lengthAdjust="spacing" textLength="60.2344" x="331.8867" y="437.9004">after_loop</text><polygon fill="#F1F1F1" points="243.1228,201.9375,480.885,201.9375,492.885,213.9375,480.885,225.9375,243.1228,225.9375,231.1228,213.9375,243.1228,201.9375" style="stroke:#181818;stroke-width:0.5;"/><text fill="#000000" font-family="sans-serif" font-size="11" lengthAdjust="spacing" textLength="19.0083" x="366.0039" y="236.1479">yes</text><text fill="#000000" font-family="sans-serif" font-size="11" lengthAdjust="spacing" textLength="237.7622" x="243.1228" y="217.7456">current character matches format specifier</text><rect fill="#F1F1F1" height="33.9688" rx="12.5" ry="12.5" style="stroke:#181818;stroke-width:0.5;" width="197.5859" x="263.2109" y="492.7305"/><text fill="#000000" font-family="sans-serif" font-size="12" lengthAdjust="spacing" textLength="177.5859" x="273.2109" y="513.8691">Move to next format specifier</text><polygon fill="#F1F1F1" points="362.0039,157.9375,374.0039,169.9375,362.0039,181.9375,350.0039,169.9375,362.0039,157.9375" style="stroke:#181818;stroke-width:0.5;"/><polygon fill="#F1F1F1" points="219.345,546.6992,504.6628,546.6992,516.6628,558.6992,504.6628,570.6992,219.345,570.6992,207.345,558.6992,219.345,546.6992" style="stroke:#181818;stroke-width:0.5;"/><text fill="#000000" font-family="sans-serif" font-size="11" lengthAdjust="spacing" textLength="285.3179" x="219.345" y="562.5073">current format specifier in types is not end of string</text><polygon fill="#F1F1F1" points="362.0039,590.6992,374.0039,602.6992,362.0039,614.6992,350.0039,602.6992,362.0039,590.6992" style="stroke:#181818;stroke-width:0.5;"/><rect fill="#F1F1F1" height="33.9688" rx="12.5" ry="12.5" style="stroke:#181818;stroke-width:0.5;" width="444.2891" x="139.8594" y="704.5005"/><text fill="#000000" font-family="sans-serif" font-size="12" lengthAdjust="spacing" textLength="424.2891" x="149.8594" y="725.6392">Handle unknown format specifier and update printed characters count</text><polygon fill="#F1F1F1" points="329.8687,656.0981,394.1392,656.0981,406.1392,668.0981,394.1392,680.0981,329.8687,680.0981,317.8687,668.0981,329.8687,656.0981" style="stroke:#181818;stroke-width:0.5;"/><text fill="#000000" font-family="sans-serif" font-size="11" lengthAdjust="spacing" textLength="19.0083" x="366.0039" y="690.3086">yes</text><text fill="#000000" font-family="sans-serif" font-size="11" lengthAdjust="spacing" textLength="64.2705" x="329.8687" y="671.9063">is_unknown</text><polygon fill="#F1F1F1" points="362.0039,758.4692,374.0039,770.4692,362.0039,782.4692,350.0039,770.4692,362.0039,758.4692" style="stroke:#181818;stroke-width:0.5;"/><rect fill="#F1F1F1" height="33.9688" rx="12.5" ry="12.5" style="stroke:#181818;stroke-width:0.5;" width="212.7793" x="255.6143" y="802.4692"/><text fill="#000000" font-family="sans-serif" font-size="12" lengthAdjust="spacing" textLength="192.7793" x="265.6143" y="823.6079">Return printed characters count</text><ellipse cx="362.0039" cy="867.438" fill="none" rx="11" ry="11" style="stroke:#222222;stroke-width:1;"/><ellipse cx="362.0039" cy="867.438" fill="#222222" rx="6" ry="6" style="stroke:#222222;stroke-width:1;"/><line style="stroke:#181818;stroke-width:1;" x1="362.0039" x2="362.0039" y1="30" y2="50"/><polygon fill="#181818" points="358.0039,40,362.0039,50,366.0039,40,362.0039,44" style="stroke:#181818;stroke-width:1;"/><line style="stroke:#181818;stroke-width:1;" x1="362.0039" x2="362.0039" y1="83.9688" y2="103.9688"/><polygon fill="#181818" points="358.0039,93.9688,362.0039,103.9688,366.0039,93.9688,362.0039,97.9688" style="stroke:#181818;stroke-width:1;"/><line style="stroke:#181818;stroke-width:1;" x1="362.0039" x2="362.0039" y1="284.3086" y2="304.3086"/><polygon fill="#181818" points="358.0039,294.3086,362.0039,304.3086,366.0039,294.3086,362.0039,298.3086" style="stroke:#181818;stroke-width:1;"/><line style="stroke:#181818;stroke-width:1;" x1="362.0039" x2="362.0039" y1="338.2773" y2="361.2773"/><polygon fill="#181818" points="358.0039,351.2773,362.0039,361.2773,366.0039,351.2773,362.0039,355.2773" style="stroke:#181818;stroke-width:1;"/><line style="stroke:#181818;stroke-width:1;" x1="362.0039" x2="362.0039" y1="395.2461" y2="416.7617"/><polygon fill="#181818" points="358.0039,406.7617,362.0039,416.7617,366.0039,406.7617,362.0039,410.7617" style="stroke:#181818;stroke-width:1;"/><line style="stroke:#181818;stroke-width:1;" x1="362.0039" x2="362.0039" y1="450.7305" y2="455.7305"/><line style="stroke:#181818;stroke-width:1;" x1="362.0039" x2="109.2832" y1="455.7305" y2="455.7305"/><line style="stroke:#181818;stroke-width:1;" x1="109.2832" x2="109.2832" y1="455.7305" y2="602.6992"/><line style="stroke:#181818;stroke-width:1;" x1="109.2832" x2="350.0039" y1="602.6992" y2="602.6992"/><polygon fill="#181818" points="340.0039,598.6992,350.0039,602.6992,340.0039,606.6992,344.0039,602.6992" style="stroke:#181818;stroke-width:1;"/><line style="stroke:#181818;stroke-width:1;" x1="362.0039" x2="362.0039" y1="225.9375" y2="250.3398"/><polygon fill="#181818" points="358.0039,240.3398,362.0039,250.3398,366.0039,240.3398,362.0039,244.3398" style="stroke:#181818;stroke-width:1;"/><line style="stroke:#181818;stroke-width:1;" x1="492.885" x2="604.7246" y1="213.9375" y2="213.9375"/><polygon fill="#181818" points="600.7246,348.2773,604.7246,358.2773,608.7246,348.2773,604.7246,352.2773" style="stroke:#181818;stroke-width:1;"/><line style="stroke:#181818;stroke-width:1;" x1="604.7246" x2="604.7246" y1="213.9375" y2="472.7305"/><line style="stroke:#181818;stroke-width:1;" x1="604.7246" x2="362.0039" y1="472.7305" y2="472.7305"/><line style="stroke:#181818;stroke-width:1;" x1="362.0039" x2="362.0039" y1="472.7305" y2="492.7305"/><polygon fill="#181818" points="358.0039,482.7305,362.0039,492.7305,366.0039,482.7305,362.0039,486.7305" style="stroke:#181818;stroke-width:1;"/><line style="stroke:#181818;stroke-width:1;" x1="362.0039" x2="362.0039" y1="181.9375" y2="201.9375"/><polygon fill="#181818" points="358.0039,191.9375,362.0039,201.9375,366.0039,191.9375,362.0039,195.9375" style="stroke:#181818;stroke-width:1;"/><line style="stroke:#181818;stroke-width:1;" x1="516.6628" x2="628.7246" y1="558.6992" y2="558.6992"/><polygon fill="#181818" points="624.7246,396.7617,628.7246,386.7617,632.7246,396.7617,628.7246,392.7617" style="stroke:#181818;stroke-width:1;"/><line style="stroke:#181818;stroke-width:1;" x1="628.7246" x2="628.7246" y1="169.9375" y2="558.6992"/><line style="stroke:#181818;stroke-width:1;" x1="628.7246" x2="374.0039" y1="169.9375" y2="169.9375"/><polygon fill="#181818" points="384.0039,165.9375,374.0039,169.9375,384.0039,173.9375,380.0039,169.9375" style="stroke:#181818;stroke-width:1;"/><line style="stroke:#181818;stroke-width:1;" x1="362.0039" x2="362.0039" y1="526.6992" y2="546.6992"/><polygon fill="#181818" points="358.0039,536.6992,362.0039,546.6992,366.0039,536.6992,362.0039,540.6992" style="stroke:#181818;stroke-width:1;"/><line style="stroke:#181818;stroke-width:1;" x1="362.0039" x2="362.0039" y1="570.6992" y2="590.6992"/><polygon fill="#181818" points="358.0039,580.6992,362.0039,590.6992,366.0039,580.6992,362.0039,584.6992" style="stroke:#181818;stroke-width:1;"/><line style="stroke:#181818;stroke-width:1;" x1="362.0039" x2="362.0039" y1="137.9375" y2="157.9375"/><polygon fill="#181818" points="358.0039,147.9375,362.0039,157.9375,366.0039,147.9375,362.0039,151.9375" style="stroke:#181818;stroke-width:1;"/><line style="stroke:#181818;stroke-width:1;" x1="362.0039" x2="362.0039" y1="680.0981" y2="704.5005"/><polygon fill="#181818" points="358.0039,694.5005,362.0039,704.5005,366.0039,694.5005,362.0039,698.5005" style="stroke:#181818;stroke-width:1;"/><line style="stroke:#181818;stroke-width:1;" x1="406.1392" x2="594.1484" y1="668.0981" y2="668.0981"/><polygon fill="#181818" points="590.1484,711.4849,594.1484,721.4849,598.1484,711.4849,594.1484,715.4849" style="stroke:#181818;stroke-width:1;"/><line style="stroke:#181818;stroke-width:1;" x1="594.1484" x2="594.1484" y1="668.0981" y2="770.4692"/><line style="stroke:#181818;stroke-width:1;" x1="594.1484" x2="374.0039" y1="770.4692" y2="770.4692"/><polygon fill="#181818" points="384.0039,766.4692,374.0039,770.4692,384.0039,774.4692,380.0039,770.4692" style="stroke:#181818;stroke-width:1;"/><line style="stroke:#181818;stroke-width:1;" x1="362.0039" x2="362.0039" y1="738.4692" y2="758.4692"/><polygon fill="#181818" points="358.0039,748.4692,362.0039,758.4692,366.0039,748.4692,362.0039,752.4692" style="stroke:#181818;stroke-width:1;"/><line style="stroke:#181818;stroke-width:1;" x1="362.0039" x2="362.0039" y1="614.6992" y2="656.0981"/><polygon fill="#181818" points="358.0039,646.0981,362.0039,656.0981,366.0039,646.0981,362.0039,650.0981" style="stroke:#181818;stroke-width:1;"/><text fill="#000000" font-family="sans-serif" font-size="11" lengthAdjust="spacing" textLength="55.2148" x="366.0039" y="636.0039">after_loop</text><line style="stroke:#181818;stroke-width:1;" x1="362.0039" x2="362.0039" y1="782.4692" y2="802.4692"/><polygon fill="#181818" points="358.0039,792.4692,362.0039,802.4692,366.0039,792.4692,362.0039,796.4692" style="stroke:#181818;stroke-width:1;"/><line style="stroke:#181818;stroke-width:1;" x1="362.0039" x2="362.0039" y1="836.438" y2="856.438"/><polygon fill="#181818" points="358.0039,846.438,362.0039,856.438,366.0039,846.438,362.0039,850.438" style="stroke:#181818;stroke-width:1;"/><!--SRC=[ZL6xRiCm3Dpr5HpZ8Fq16-ZGBktGfVq0WP6fM8XA2HATHx- -aft0QGCKrIIATxpZAGicKQeTa7jFseRqYR8oWRE06J31semf4SkbfUlZ1cPuqW9hEKVA6pYWzgwGrfXsfPovsz5QAd37fH7rN6h7FPsQJhMlxCIXTrzKwCdXrbFkLA98A0hASHPM5_rf8XgX1CM66IZ3x0Xo9EEiezI03CImEbDk9dezxGS9kAn7tdCuCaW0YpvJjo2UqVjA1HEAL8w1UySxYAdQjYCRSO6XR0nZx55exb2_MCg5EhBSp7nAXFjfg0yXtZJG5hp- -RYjuBcaecsdM_iM3bJjCftaRjThJ70SdASbfT-u4ZrCFrGo00vI1I1Oo59ss3LAFJpUEgg1Bs7T1Tg-JFyErp3lrFuLqhoZQjz9niH_0BE4-0q0]--></g></svg>