<svg xmlns="http://www.w3.org/2000/svg" xmlns:xlink="http://www.w3.org/1999/xlink" contentStyleType="text/css" height="786px" preserveAspectRatio="none" style="width:641px;height:786px;background:#FFFFFF;" version="1.1" viewBox="0 0 641 786" width="641px" zoomAndPan="magnify"><defs/><g><ellipse cx="320.877" cy="20" fill="#222222" rx="10" ry="10" style="stroke:#222222;stroke-width:1;"/><rect fill="#F1F1F1" height="33.9688" rx="12.5" ry="12.5" style="stroke:#181818;stroke-width:0.5;" width="619.7539" x="11" y="50"/><text fill="#000000" font-family="sans-serif" font-size="12" lengthAdjust="spacing" textLength="599.7539" x="21" y="71.1387">handle_format(const char *format, handler_t *types, va_list *args, char *buffer, int *p_buffer_index)</text><rect fill="#F1F1F1" height="33.9688" rx="12.5" ry="12.5" style="stroke:#181818;stroke-width:0.5;" width="128.6973" x="256.5283" y="103.9688"/><text fill="#000000" font-family="sans-serif" font-size="12" lengthAdjust="spacing" textLength="108.6973" x="266.5283" y="125.1074">Initialize variables</text><rect fill="#F1F1F1" height="33.9688" rx="12.5" ry="12.5" style="stroke:#181818;stroke-width:0.5;" width="161.8555" x="239.9492" y="262.0503"/><text fill="#000000" font-family="sans-serif" font-size="12" lengthAdjust="spacing" textLength="141.8555" x="249.9492" y="283.189">Set is_unknown to false</text><rect fill="#F1F1F1" height="33.9688" rx="12.5" ry="12.5" style="stroke:#181818;stroke-width:0.5;" width="465.4414" x="88.1563" y="316.019"/><text fill="#000000" font-family="sans-serif" font-size="12" lengthAdjust="spacing" textLength="445.4414" x="98.1563" y="337.1577">Call the corresponding print function and update printed characters count</text><rect fill="#F1F1F1" height="33.9688" rx="12.5" ry="12.5" style="stroke:#181818;stroke-width:0.5;" width="107.8086" x="266.9727" y="379.0854"/><text fill="#000000" font-family="sans-serif" font-size="12" lengthAdjust="spacing" textLength="87.8086" x="276.9727" y="400.2241">Break the loop</text><polygon fill="#F1F1F1" points="201.9958,213.6479,439.7581,213.6479,451.7581,225.6479,439.7581,237.6479,201.9958,237.6479,189.9958,225.6479,201.9958,213.6479" style="stroke:#181818;stroke-width:0.5;"/><text fill="#000000" font-family="sans-serif" font-size="11" lengthAdjust="spacing" textLength="19.0083" x="324.877" y="247.8584">yes</text><text fill="#000000" font-family="sans-serif" font-size="11" lengthAdjust="spacing" textLength="237.7622" x="201.9958" y="229.4561">current character matches format specifier</text><polygon fill="#F1F1F1" points="320.877,433.0542,332.877,445.0542,320.877,457.0542,308.877,445.0542,320.877,433.0542" style="stroke:#181818;stroke-width:0.5;"/><rect fill="#F1F1F1" height="33.9688" rx="12.5" ry="12.5" style="stroke:#181818;stroke-width:0.5;" width="197.5859" x="222.084" y="477.0542"/><text fill="#000000" font-family="sans-serif" font-size="12" lengthAdjust="spacing" textLength="177.5859" x="232.084" y="498.1929">Move to next format specifier</text><polygon fill="#F1F1F1" points="178.218,157.9375,463.5359,157.9375,475.5359,169.9375,463.5359,181.9375,178.218,181.9375,166.218,169.9375,178.218,157.9375" style="stroke:#181818;stroke-width:0.5;"/><text fill="#000000" font-family="sans-serif" font-size="11" lengthAdjust="spacing" textLength="22.5747" x="324.877" y="192.1479">true</text><text fill="#000000" font-family="sans-serif" font-size="11" lengthAdjust="spacing" textLength="285.3179" x="178.218" y="173.7456">current format specifier in types is not end of string</text><rect fill="#F1F1F1" height="33.9688" rx="12.5" ry="12.5" style="stroke:#181818;stroke-width:0.5;" width="444.2891" x="98.7324" y="601.4253"/><text fill="#000000" font-family="sans-serif" font-size="12" lengthAdjust="spacing" textLength="424.2891" x="108.7324" y="622.564">Handle unknown format specifier and update printed characters count</text><polygon fill="#F1F1F1" points="288.7417,553.0229,353.0122,553.0229,365.0122,565.0229,353.0122,577.0229,288.7417,577.0229,276.7417,565.0229,288.7417,553.0229" style="stroke:#181818;stroke-width:0.5;"/><text fill="#000000" font-family="sans-serif" font-size="11" lengthAdjust="spacing" textLength="19.0083" x="324.877" y="587.2334">yes</text><text fill="#000000" font-family="sans-serif" font-size="11" lengthAdjust="spacing" textLength="64.2705" x="288.7417" y="568.8311">is_unknown</text><polygon fill="#F1F1F1" points="320.877,655.394,332.877,667.394,320.877,679.394,308.877,667.394,320.877,655.394" style="stroke:#181818;stroke-width:0.5;"/><rect fill="#F1F1F1" height="33.9688" rx="12.5" ry="12.5" style="stroke:#181818;stroke-width:0.5;" width="212.7793" x="214.4873" y="699.394"/><text fill="#000000" font-family="sans-serif" font-size="12" lengthAdjust="spacing" textLength="192.7793" x="224.4873" y="720.5327">Return printed characters count</text><ellipse cx="320.877" cy="764.3628" fill="none" rx="11" ry="11" style="stroke:#222222;stroke-width:1;"/><ellipse cx="320.877" cy="764.3628" fill="#222222" rx="6" ry="6" style="stroke:#222222;stroke-width:1;"/><line style="stroke:#181818;stroke-width:1;" x1="320.877" x2="320.877" y1="30" y2="50"/><polygon fill="#181818" points="316.877,40,320.877,50,324.877,40,320.877,44" style="stroke:#181818;stroke-width:1;"/><line style="stroke:#181818;stroke-width:1;" x1="320.877" x2="320.877" y1="83.9688" y2="103.9688"/><polygon fill="#181818" points="316.877,93.9688,320.877,103.9688,324.877,93.9688,320.877,97.9688" style="stroke:#181818;stroke-width:1;"/><line style="stroke:#181818;stroke-width:1;" x1="320.877" x2="320.877" y1="296.019" y2="316.019"/><polygon fill="#181818" points="316.877,306.019,320.877,316.019,324.877,306.019,320.877,310.019" style="stroke:#181818;stroke-width:1;"/><line style="stroke:#181818;stroke-width:1;" x1="320.877" x2="320.877" y1="349.9878" y2="379.0854"/><polygon fill="#181818" points="316.877,369.0854,320.877,379.0854,324.877,369.0854,320.877,373.0854" style="stroke:#181818;stroke-width:1;"/><line style="stroke:#181818;stroke-width:1;" x1="320.877" x2="320.877" y1="237.6479" y2="262.0503"/><polygon fill="#181818" points="316.877,252.0503,320.877,262.0503,324.877,252.0503,320.877,256.0503" style="stroke:#181818;stroke-width:1;"/><line style="stroke:#181818;stroke-width:1;" x1="451.7581" x2="563.5977" y1="225.6479" y2="225.6479"/><polygon fill="#181818" points="559.5977,323.0034,563.5977,333.0034,567.5977,323.0034,563.5977,327.0034" style="stroke:#181818;stroke-width:1;"/><line style="stroke:#181818;stroke-width:1;" x1="563.5977" x2="563.5977" y1="225.6479" y2="445.0542"/><line style="stroke:#181818;stroke-width:1;" x1="563.5977" x2="332.877" y1="445.0542" y2="445.0542"/><polygon fill="#181818" points="342.877,441.0542,332.877,445.0542,342.877,449.0542,338.877,445.0542" style="stroke:#181818;stroke-width:1;"/><line style="stroke:#181818;stroke-width:1;" x1="320.877" x2="320.877" y1="413.0542" y2="433.0542"/><polygon fill="#181818" points="316.877,423.0542,320.877,433.0542,324.877,423.0542,320.877,427.0542" style="stroke:#181818;stroke-width:1;"/><line style="stroke:#181818;stroke-width:1;" x1="320.877" x2="320.877" y1="457.0542" y2="477.0542"/><polygon fill="#181818" points="316.877,467.0542,320.877,477.0542,324.877,467.0542,320.877,471.0542" style="stroke:#181818;stroke-width:1;"/><line style="stroke:#181818;stroke-width:1;" x1="320.877" x2="320.877" y1="181.9375" y2="213.6479"/><polygon fill="#181818" points="316.877,203.6479,320.877,213.6479,324.877,203.6479,320.877,207.6479" style="stroke:#181818;stroke-width:1;"/><line style="stroke:#181818;stroke-width:1;" x1="320.877" x2="320.877" y1="511.0229" y2="521.0229"/><line style="stroke:#181818;stroke-width:1;" x1="320.877" x2="587.5977" y1="521.0229" y2="521.0229"/><polygon fill="#181818" points="583.5977,359.0854,587.5977,349.0854,591.5977,359.0854,587.5977,355.0854" style="stroke:#181818;stroke-width:1;"/><line style="stroke:#181818;stroke-width:1;" x1="587.5977" x2="587.5977" y1="169.9375" y2="521.0229"/><line style="stroke:#181818;stroke-width:1;" x1="587.5977" x2="475.5359" y1="169.9375" y2="169.9375"/><polygon fill="#181818" points="485.5359,165.9375,475.5359,169.9375,485.5359,173.9375,481.5359,169.9375" style="stroke:#181818;stroke-width:1;"/><line style="stroke:#181818;stroke-width:1;" x1="166.218" x2="66.1563" y1="169.9375" y2="169.9375"/><polygon fill="#181818" points="62.1563,345.0854,66.1563,355.0854,70.1563,345.0854,66.1563,349.0854" style="stroke:#181818;stroke-width:1;"/><line style="stroke:#181818;stroke-width:1;" x1="66.1563" x2="66.1563" y1="169.9375" y2="533.0229"/><line style="stroke:#181818;stroke-width:1;" x1="66.1563" x2="320.877" y1="533.0229" y2="533.0229"/><line style="stroke:#181818;stroke-width:1;" x1="320.877" x2="320.877" y1="533.0229" y2="553.0229"/><polygon fill="#181818" points="316.877,543.0229,320.877,553.0229,324.877,543.0229,320.877,547.0229" style="stroke:#181818;stroke-width:1;"/><line style="stroke:#181818;stroke-width:1;" x1="320.877" x2="320.877" y1="137.9375" y2="157.9375"/><polygon fill="#181818" points="316.877,147.9375,320.877,157.9375,324.877,147.9375,320.877,151.9375" style="stroke:#181818;stroke-width:1;"/><line style="stroke:#181818;stroke-width:1;" x1="320.877" x2="320.877" y1="577.0229" y2="601.4253"/><polygon fill="#181818" points="316.877,591.4253,320.877,601.4253,324.877,591.4253,320.877,595.4253" style="stroke:#181818;stroke-width:1;"/><line style="stroke:#181818;stroke-width:1;" x1="365.0122" x2="553.0215" y1="565.0229" y2="565.0229"/><polygon fill="#181818" points="549.0215,608.4097,553.0215,618.4097,557.0215,608.4097,553.0215,612.4097" style="stroke:#181818;stroke-width:1;"/><line style="stroke:#181818;stroke-width:1;" x1="553.0215" x2="553.0215" y1="565.0229" y2="667.394"/><line style="stroke:#181818;stroke-width:1;" x1="553.0215" x2="332.877" y1="667.394" y2="667.394"/><polygon fill="#181818" points="342.877,663.394,332.877,667.394,342.877,671.394,338.877,667.394" style="stroke:#181818;stroke-width:1;"/><line style="stroke:#181818;stroke-width:1;" x1="320.877" x2="320.877" y1="635.394" y2="655.394"/><polygon fill="#181818" points="316.877,645.394,320.877,655.394,324.877,645.394,320.877,649.394" style="stroke:#181818;stroke-width:1;"/><line style="stroke:#181818;stroke-width:1;" x1="320.877" x2="320.877" y1="679.394" y2="699.394"/><polygon fill="#181818" points="316.877,689.394,320.877,699.394,324.877,689.394,320.877,693.394" style="stroke:#181818;stroke-width:1;"/><line style="stroke:#181818;stroke-width:1;" x1="320.877" x2="320.877" y1="733.3628" y2="753.3628"/><polygon fill="#181818" points="316.877,743.3628,320.877,753.3628,324.877,743.3628,320.877,747.3628" style="stroke:#181818;stroke-width:1;"/><!--SRC=[ZL6xRiCm3Dpz5Hpj85zWR-dI3btQ3p0KcOg9g9GWKNdqwqjRA5mqG55D4dbtF9woc2HDqy-69u-Z2-d3I6i3Pm4xcmIxMjf3HQHHO2VtY7aF5pDwKjpEf9C-A_nOdCEq1s9jnB4-H-89RztGz2zCGiRJ9oezaJbwp4DpdSaZjBQaXCgh8o57jEG8auh1EXCe0mS1v0c2Woo9-DGjrLPImQu1FUGsfSMJiQ8IAcXdLVYjtO7CoD3UCLVwSlft55KT2vyvN7Lu06Tync53F1dl5ohOeADo33of5uXfMTmLjaA1GJE34YSZM3iuRPQoKWlB3yr3GdDUHNq8iJPqLNBhhNyD5roiCDuUCneQHQuvDai0c_c71VldzIVXUxc7jFzbklhgtr1AuZzmMKBy0W00]--></g></svg>