<svg xmlns="http://www.w3.org/2000/svg" xmlns:xlink="http://www.w3.org/1999/xlink" contentStyleType="text/css" height="786px" preserveAspectRatio="none" style="width:641px;height:786px;background:#FFFFFF;" version="1.1" viewBox="0 0 641 786" width="641px" zoomAndPan="magnify"><defs/><g><ellipse cx="320.877" cy="20" fill="#222222" rx="10" ry="10" style="stroke:#222222;stroke-width:1;"/><rect fill="#F1F1F1" height="33.9688" rx="12.5" ry="12.5" style="stroke:#181818;stroke-width:0.5;" width="619.7539" x="11" y="50"/><text fill="#000000" font-family="sans-serif" font-size="12" lengthAdjust="spacing" textLength="599.7539" x="21" y="71.1387">handle_format(const char *format, handler_t *types, va_list *args, char *buffer, int *p_buffer_index)</text><rect fill="#F1F1F1" height="33.9688" rx="12.5" ry="12.5" style="stroke:#181818;stroke-width:0.5;" width="128.6973" x="256.5283" y="103.9688"/><text fill="#000000" font-family="sans-serif" font-size="12" lengthAdjust="spacing" textLength="108.6973" x="266.5283" y="125.1074">Initialize variables</text><rect fill="#F1F1F1" height="33.9688" rx="12.5" ry="12.5" style="stroke:#181818;stroke-width:0.5;" width="115.4316" x="263.1611" y="262.0503"/><text fill="#000000" font-family="sans-serif" font-size="12" lengthAdjust="spacing" textLength="95.4316" x="273.1611" y="283.189">is_unknown = 0</text><rect fill="#F1F1F1" height="33.9688" rx="12.5" ry="12.5" style="stroke:#181818;stroke-width:0.5;" width="404.832" x="118.4609" y="316.019"/><text fill="#000000" font-family="sans-serif" font-size="12" lengthAdjust="spacing" textLength="384.832" x="128.4609" y="337.1577">printed_chars = types[i].print_func(args, buffer, p_buffer_index)</text><rect fill="#F1F1F1" height="33.9688" rx="12.5" ry="12.5" style="stroke:#181818;stroke-width:0.5;" width="54.2363" x="293.7588" y="379.0854"/><text fill="#000000" font-family="sans-serif" font-size="12" lengthAdjust="spacing" textLength="34.2363" x="303.7588" y="400.2241">break</text><polygon fill="#F1F1F1" points="216.3979,213.6479,425.356,213.6479,437.356,225.6479,425.356,237.6479,216.3979,237.6479,204.3979,225.6479,216.3979,213.6479" style="stroke:#181818;stroke-width:0.5;"/><text fill="#000000" font-family="sans-serif" font-size="11" lengthAdjust="spacing" textLength="19.0083" x="324.877" y="247.8584">yes</text><ellipse cx="221.8979" cy="224.5503" fill="#000000" rx="2.5" ry="2.5" style="stroke:#000000;stroke-width:0;"/><text fill="#000000" font-family="sans-serif" font-size="11" lengthAdjust="spacing" textLength="196.958" x="228.3979" y="229.4561">format == types[i].format_specifier</text><polygon fill="#F1F1F1" points="320.877,433.0542,332.877,445.0542,320.877,457.0542,308.877,445.0542,320.877,433.0542" style="stroke:#181818;stroke-width:0.5;"/><rect fill="#F1F1F1" height="33.9688" rx="12.5" ry="12.5" style="stroke:#181818;stroke-width:0.5;" width="43.4434" x="299.1553" y="477.0542"/><text fill="#000000" font-family="sans-serif" font-size="12" lengthAdjust="spacing" textLength="23.4434" x="309.1553" y="498.1929">i++</text><polygon fill="#F1F1F1" points="234.8723,157.9375,406.8816,157.9375,418.8816,169.9375,406.8816,181.9375,234.8723,181.9375,222.8723,169.9375,234.8723,157.9375" style="stroke:#181818;stroke-width:0.5;"/><text fill="#000000" font-family="sans-serif" font-size="11" lengthAdjust="spacing" textLength="22.5747" x="324.877" y="192.1479">true</text><text fill="#000000" font-family="sans-serif" font-size="11" lengthAdjust="spacing" textLength="172.0093" x="234.8723" y="173.7456">types[i].format_specifier != '\0'</text><rect fill="#F1F1F1" height="33.9688" rx="12.5" ry="12.5" style="stroke:#181818;stroke-width:0.5;" width="421.877" x="109.9385" y="601.4253"/><text fill="#000000" font-family="sans-serif" font-size="12" lengthAdjust="spacing" textLength="401.877" x="119.9385" y="622.564">printed_chars = percent_unknown(*format, buffer, p_buffer_index)</text><polygon fill="#F1F1F1" points="288.7417,553.0229,353.0122,553.0229,365.0122,565.0229,353.0122,577.0229,288.7417,577.0229,276.7417,565.0229,288.7417,553.0229" style="stroke:#181818;stroke-width:0.5;"/><text fill="#000000" font-family="sans-serif" font-size="11" lengthAdjust="spacing" textLength="19.0083" x="324.877" y="587.2334">yes</text><text fill="#000000" font-family="sans-serif" font-size="11" lengthAdjust="spacing" textLength="64.2705" x="288.7417" y="568.8311">is_unknown</text><polygon fill="#F1F1F1" points="320.877,655.394,332.877,667.394,320.877,679.394,308.877,667.394,320.877,655.394" style="stroke:#181818;stroke-width:0.5;"/><rect fill="#F1F1F1" height="33.9688" rx="12.5" ry="12.5" style="stroke:#181818;stroke-width:0.5;" width="142.918" x="249.418" y="699.394"/><text fill="#000000" font-family="sans-serif" font-size="12" lengthAdjust="spacing" textLength="122.918" x="259.418" y="720.5327">return printed_chars</text><ellipse cx="320.877" cy="764.3628" fill="none" rx="11" ry="11" style="stroke:#222222;stroke-width:1;"/><ellipse cx="320.877" cy="764.3628" fill="#222222" rx="6" ry="6" style="stroke:#222222;stroke-width:1;"/><line style="stroke:#181818;stroke-width:1;" x1="320.877" x2="320.877" y1="30" y2="50"/><polygon fill="#181818" points="316.877,40,320.877,50,324.877,40,320.877,44" style="stroke:#181818;stroke-width:1;"/><line style="stroke:#181818;stroke-width:1;" x1="320.877" x2="320.877" y1="83.9688" y2="103.9688"/><polygon fill="#181818" points="316.877,93.9688,320.877,103.9688,324.877,93.9688,320.877,97.9688" style="stroke:#181818;stroke-width:1;"/><line style="stroke:#181818;stroke-width:1;" x1="320.877" x2="320.877" y1="296.019" y2="316.019"/><polygon fill="#181818" points="316.877,306.019,320.877,316.019,324.877,306.019,320.877,310.019" style="stroke:#181818;stroke-width:1;"/><line style="stroke:#181818;stroke-width:1;" x1="320.877" x2="320.877" y1="349.9878" y2="379.0854"/><polygon fill="#181818" points="316.877,369.0854,320.877,379.0854,324.877,369.0854,320.877,373.0854" style="stroke:#181818;stroke-width:1;"/><line style="stroke:#181818;stroke-width:1;" x1="320.877" x2="320.877" y1="237.6479" y2="262.0503"/><polygon fill="#181818" points="316.877,252.0503,320.877,262.0503,324.877,252.0503,320.877,256.0503" style="stroke:#181818;stroke-width:1;"/><line style="stroke:#181818;stroke-width:1;" x1="437.356" x2="533.293" y1="225.6479" y2="225.6479"/><polygon fill="#181818" points="529.293,323.0034,533.293,333.0034,537.293,323.0034,533.293,327.0034" style="stroke:#181818;stroke-width:1;"/><line style="stroke:#181818;stroke-width:1;" x1="533.293" x2="533.293" y1="225.6479" y2="445.0542"/><line style="stroke:#181818;stroke-width:1;" x1="533.293" x2="332.877" y1="445.0542" y2="445.0542"/><polygon fill="#181818" points="342.877,441.0542,332.877,445.0542,342.877,449.0542,338.877,445.0542" style="stroke:#181818;stroke-width:1;"/><line style="stroke:#181818;stroke-width:1;" x1="320.877" x2="320.877" y1="413.0542" y2="433.0542"/><polygon fill="#181818" points="316.877,423.0542,320.877,433.0542,324.877,423.0542,320.877,427.0542" style="stroke:#181818;stroke-width:1;"/><line style="stroke:#181818;stroke-width:1;" x1="320.877" x2="320.877" y1="457.0542" y2="477.0542"/><polygon fill="#181818" points="316.877,467.0542,320.877,477.0542,324.877,467.0542,320.877,471.0542" style="stroke:#181818;stroke-width:1;"/><line style="stroke:#181818;stroke-width:1;" x1="320.877" x2="320.877" y1="181.9375" y2="213.6479"/><polygon fill="#181818" points="316.877,203.6479,320.877,213.6479,324.877,203.6479,320.877,207.6479" style="stroke:#181818;stroke-width:1;"/><line style="stroke:#181818;stroke-width:1;" x1="320.877" x2="320.877" y1="511.0229" y2="521.0229"/><line style="stroke:#181818;stroke-width:1;" x1="320.877" x2="557.293" y1="521.0229" y2="521.0229"/><polygon fill="#181818" points="553.293,359.0854,557.293,349.0854,561.293,359.0854,557.293,355.0854" style="stroke:#181818;stroke-width:1;"/><line style="stroke:#181818;stroke-width:1;" x1="557.293" x2="557.293" y1="169.9375" y2="521.0229"/><line style="stroke:#181818;stroke-width:1;" x1="557.293" x2="418.8816" y1="169.9375" y2="169.9375"/><polygon fill="#181818" points="428.8816,165.9375,418.8816,169.9375,428.8816,173.9375,424.8816,169.9375" style="stroke:#181818;stroke-width:1;"/><line style="stroke:#181818;stroke-width:1;" x1="222.8723" x2="96.4609" y1="169.9375" y2="169.9375"/><polygon fill="#181818" points="92.4609,345.0854,96.4609,355.0854,100.4609,345.0854,96.4609,349.0854" style="stroke:#181818;stroke-width:1;"/><line style="stroke:#181818;stroke-width:1;" x1="96.4609" x2="96.4609" y1="169.9375" y2="533.0229"/><line style="stroke:#181818;stroke-width:1;" x1="96.4609" x2="320.877" y1="533.0229" y2="533.0229"/><line style="stroke:#181818;stroke-width:1;" x1="320.877" x2="320.877" y1="533.0229" y2="553.0229"/><polygon fill="#181818" points="316.877,543.0229,320.877,553.0229,324.877,543.0229,320.877,547.0229" style="stroke:#181818;stroke-width:1;"/><line style="stroke:#181818;stroke-width:1;" x1="320.877" x2="320.877" y1="137.9375" y2="157.9375"/><polygon fill="#181818" points="316.877,147.9375,320.877,157.9375,324.877,147.9375,320.877,151.9375" style="stroke:#181818;stroke-width:1;"/><line style="stroke:#181818;stroke-width:1;" x1="320.877" x2="320.877" y1="577.0229" y2="601.4253"/><polygon fill="#181818" points="316.877,591.4253,320.877,601.4253,324.877,591.4253,320.877,595.4253" style="stroke:#181818;stroke-width:1;"/><line style="stroke:#181818;stroke-width:1;" x1="365.0122" x2="541.8154" y1="565.0229" y2="565.0229"/><polygon fill="#181818" points="537.8154,608.4097,541.8154,618.4097,545.8154,608.4097,541.8154,612.4097" style="stroke:#181818;stroke-width:1;"/><line style="stroke:#181818;stroke-width:1;" x1="541.8154" x2="541.8154" y1="565.0229" y2="667.394"/><line style="stroke:#181818;stroke-width:1;" x1="541.8154" x2="332.877" y1="667.394" y2="667.394"/><polygon fill="#181818" points="342.877,663.394,332.877,667.394,342.877,671.394,338.877,667.394" style="stroke:#181818;stroke-width:1;"/><line style="stroke:#181818;stroke-width:1;" x1="320.877" x2="320.877" y1="635.394" y2="655.394"/><polygon fill="#181818" points="316.877,645.394,320.877,655.394,324.877,645.394,320.877,649.394" style="stroke:#181818;stroke-width:1;"/><line style="stroke:#181818;stroke-width:1;" x1="320.877" x2="320.877" y1="679.394" y2="699.394"/><polygon fill="#181818" points="316.877,689.394,320.877,699.394,324.877,689.394,320.877,693.394" style="stroke:#181818;stroke-width:1;"/><line style="stroke:#181818;stroke-width:1;" x1="320.877" x2="320.877" y1="733.3628" y2="753.3628"/><polygon fill="#181818" points="316.877,743.3628,320.877,753.3628,324.877,743.3628,320.877,747.3628" style="stroke:#181818;stroke-width:1;"/><!--SRC=[TL51ReCm4Bpx5TjJWA0gPn0Fw1lIoZAmBglGnLgRfkdhQt2Qj4BPstXdPcTa7um4fQh1S3-YjfDyc91r4_i0tM04YlHKGcA83b24YqDVmgVH8qLUOUGzmaHlPsjHIY2E2wSJrCGzVkMrgbwO0fcHlZ7AXKmxeg_LUQ0H8LjzZ_Jsd6vgxx0ZIoZmrC3kzR3BWNoaoOovWZXa8Ri6XAQ1X_eSme0CsGLz4YvJaTSpdtWwCpHmgEyB9p4zzdffvE6FxxhGTkOkIvr_sswAthnQGNDA6BadgzBf_RvM4Q_5rLBZ7cOJTfF7eNGOWrm5sUsF7iP9fol1C0l3FxzQ-J2v7m00]--></g></svg>