<svg xmlns="http://www.w3.org/2000/svg" xmlns:xlink="http://www.w3.org/1999/xlink" contentStyleType="text/css" height="586px" preserveAspectRatio="none" style="width:390px;height:586px;background:#FFFFFF;" version="1.1" viewBox="0 0 390 586" width="390px" zoomAndPan="magnify"><defs/><g><ellipse cx="194.2422" cy="20" fill="#222222" rx="10" ry="10" style="stroke:#222222;stroke-width:1;"/><rect fill="#F1F1F1" height="33.9688" rx="12.5" ry="12.5" style="stroke:#181818;stroke-width:0.5;" width="363.5469" x="12.4688" y="50"/><text fill="#000000" font-family="sans-serif" font-size="12" lengthAdjust="spacing" textLength="343.5469" x="22.4688" y="71.1387">percent_s(va_list *args, char *buffer, int *p_buffer_index)</text><rect fill="#F1F1F1" height="33.9688" rx="12.5" ry="12.5" style="stroke:#181818;stroke-width:0.5;" width="163.2148" x="112.6348" y="103.9688"/><text fill="#000000" font-family="sans-serif" font-size="12" lengthAdjust="spacing" textLength="143.2148" x="122.6348" y="125.1074">Extract string from args</text><rect fill="#F1F1F1" height="33.9688" rx="12.5" ry="12.5" style="stroke:#181818;stroke-width:0.5;" width="95.8555" x="146.3145" y="206.3398"/><text fill="#000000" font-family="sans-serif" font-size="12" lengthAdjust="spacing" textLength="75.8555" x="156.3145" y="227.4785">str = "(null)"</text><polygon fill="#F1F1F1" points="159.9773,157.9375,228.5071,157.9375,240.5071,169.9375,228.5071,181.9375,159.9773,181.9375,147.9773,169.9375,159.9773,157.9375" style="stroke:#181818;stroke-width:0.5;"/><text fill="#000000" font-family="sans-serif" font-size="11" lengthAdjust="spacing" textLength="19.0083" x="198.2422" y="192.1479">yes</text><text fill="#000000" font-family="sans-serif" font-size="11" lengthAdjust="spacing" textLength="68.5298" x="159.9773" y="173.7456">str == NULL</text><polygon fill="#F1F1F1" points="194.2422,260.3086,206.2422,272.3086,194.2422,284.3086,182.2422,272.3086,194.2422,260.3086" style="stroke:#181818;stroke-width:0.5;"/><rect fill="#F1F1F1" height="33.9688" rx="12.5" ry="12.5" style="stroke:#181818;stroke-width:0.5;" width="316.4844" x="36" y="360.019"/><text fill="#000000" font-family="sans-serif" font-size="12" lengthAdjust="spacing" textLength="296.4844" x="46" y="381.1577">append_to_buffer(buffer, p_buffer_index, *str++)</text><rect fill="#F1F1F1" height="33.9688" rx="12.5" ry="12.5" style="stroke:#181818;stroke-width:0.5;" width="73.9648" x="157.2598" y="423.0854"/><text fill="#000000" font-family="sans-serif" font-size="12" lengthAdjust="spacing" textLength="53.9648" x="167.2598" y="444.2241">count++</text><polygon fill="#F1F1F1" points="180.959,304.3086,207.5254,304.3086,219.5254,316.3086,207.5254,328.3086,180.959,328.3086,168.959,316.3086,180.959,304.3086" style="stroke:#181818;stroke-width:0.5;"/><text fill="#000000" font-family="sans-serif" font-size="11" lengthAdjust="spacing" textLength="22.5747" x="198.2422" y="338.519">true</text><ellipse cx="186.459" cy="315.2109" fill="#000000" rx="2.5" ry="2.5" style="stroke:#000000;stroke-width:0;"/><text fill="#000000" font-family="sans-serif" font-size="11" lengthAdjust="spacing" textLength="14.5664" x="192.959" y="320.1167">str</text><rect fill="#F1F1F1" height="33.9688" rx="12.5" ry="12.5" style="stroke:#181818;stroke-width:0.5;" width="94.8359" x="146.8242" y="499.0542"/><text fill="#000000" font-family="sans-serif" font-size="12" lengthAdjust="spacing" textLength="74.8359" x="156.8242" y="520.1929">return count</text><ellipse cx="194.2422" cy="564.0229" fill="none" rx="11" ry="11" style="stroke:#222222;stroke-width:1;"/><ellipse cx="194.2422" cy="564.0229" fill="#222222" rx="6" ry="6" style="stroke:#222222;stroke-width:1;"/><line style="stroke:#181818;stroke-width:1;" x1="194.2422" x2="194.2422" y1="30" y2="50"/><polygon fill="#181818" points="190.2422,40,194.2422,50,198.2422,40,194.2422,44" style="stroke:#181818;stroke-width:1;"/><line style="stroke:#181818;stroke-width:1;" x1="194.2422" x2="194.2422" y1="83.9688" y2="103.9688"/><polygon fill="#181818" points="190.2422,93.9688,194.2422,103.9688,198.2422,93.9688,194.2422,97.9688" style="stroke:#181818;stroke-width:1;"/><line style="stroke:#181818;stroke-width:1;" x1="194.2422" x2="194.2422" y1="181.9375" y2="206.3398"/><polygon fill="#181818" points="190.2422,196.3398,194.2422,206.3398,198.2422,196.3398,194.2422,200.3398" style="stroke:#181818;stroke-width:1;"/><line style="stroke:#181818;stroke-width:1;" x1="240.5071" x2="252.5071" y1="169.9375" y2="169.9375"/><polygon fill="#181818" points="248.5071,213.3242,252.5071,223.3242,256.5071,213.3242,252.5071,217.3242" style="stroke:#181818;stroke-width:1;"/><line style="stroke:#181818;stroke-width:1;" x1="252.5071" x2="252.5071" y1="169.9375" y2="272.3086"/><line style="stroke:#181818;stroke-width:1;" x1="252.5071" x2="206.2422" y1="272.3086" y2="272.3086"/><polygon fill="#181818" points="216.2422,268.3086,206.2422,272.3086,216.2422,276.3086,212.2422,272.3086" style="stroke:#181818;stroke-width:1;"/><line style="stroke:#181818;stroke-width:1;" x1="194.2422" x2="194.2422" y1="240.3086" y2="260.3086"/><polygon fill="#181818" points="190.2422,250.3086,194.2422,260.3086,198.2422,250.3086,194.2422,254.3086" style="stroke:#181818;stroke-width:1;"/><line style="stroke:#181818;stroke-width:1;" x1="194.2422" x2="194.2422" y1="137.9375" y2="157.9375"/><polygon fill="#181818" points="190.2422,147.9375,194.2422,157.9375,198.2422,147.9375,194.2422,151.9375" style="stroke:#181818;stroke-width:1;"/><line style="stroke:#181818;stroke-width:1;" x1="194.2422" x2="194.2422" y1="393.9878" y2="423.0854"/><polygon fill="#181818" points="190.2422,413.0854,194.2422,423.0854,198.2422,413.0854,194.2422,417.0854" style="stroke:#181818;stroke-width:1;"/><line style="stroke:#181818;stroke-width:1;" x1="194.2422" x2="194.2422" y1="328.3086" y2="360.019"/><polygon fill="#181818" points="190.2422,350.019,194.2422,360.019,198.2422,350.019,194.2422,354.019" style="stroke:#181818;stroke-width:1;"/><line style="stroke:#181818;stroke-width:1;" x1="194.2422" x2="194.2422" y1="457.0542" y2="467.0542"/><line style="stroke:#181818;stroke-width:1;" x1="194.2422" x2="364.4844" y1="467.0542" y2="467.0542"/><polygon fill="#181818" points="360.4844,403.0854,364.4844,393.0854,368.4844,403.0854,364.4844,399.0854" style="stroke:#181818;stroke-width:1;"/><line style="stroke:#181818;stroke-width:1;" x1="364.4844" x2="364.4844" y1="316.3086" y2="467.0542"/><line style="stroke:#181818;stroke-width:1;" x1="364.4844" x2="219.5254" y1="316.3086" y2="316.3086"/><polygon fill="#181818" points="229.5254,312.3086,219.5254,316.3086,229.5254,320.3086,225.5254,316.3086" style="stroke:#181818;stroke-width:1;"/><line style="stroke:#181818;stroke-width:1;" x1="168.959" x2="24" y1="316.3086" y2="316.3086"/><polygon fill="#181818" points="20,389.0854,24,399.0854,28,389.0854,24,393.0854" style="stroke:#181818;stroke-width:1;"/><line style="stroke:#181818;stroke-width:1;" x1="24" x2="24" y1="316.3086" y2="479.0542"/><line style="stroke:#181818;stroke-width:1;" x1="24" x2="194.2422" y1="479.0542" y2="479.0542"/><line style="stroke:#181818;stroke-width:1;" x1="194.2422" x2="194.2422" y1="479.0542" y2="499.0542"/><polygon fill="#181818" points="190.2422,489.0542,194.2422,499.0542,198.2422,489.0542,194.2422,493.0542" style="stroke:#181818;stroke-width:1;"/><line style="stroke:#181818;stroke-width:1;" x1="194.2422" x2="194.2422" y1="284.3086" y2="304.3086"/><polygon fill="#181818" points="190.2422,294.3086,194.2422,304.3086,198.2422,294.3086,194.2422,298.3086" style="stroke:#181818;stroke-width:1;"/><line style="stroke:#181818;stroke-width:1;" x1="194.2422" x2="194.2422" y1="533.0229" y2="553.0229"/><polygon fill="#181818" points="190.2422,543.0229,194.2422,553.0229,198.2422,543.0229,194.2422,547.0229" style="stroke:#181818;stroke-width:1;"/><!--SRC=[LOunRiCm34LtdU8ZasJx13OoTWkwTHPKXue5kBH0KMrw-ofgEfGR-VZ9LpI86ZDdafLOVR6VmU-fA8OWjp9XtO9WUAynaan8t43slwrFVAMxMypySbS9gwAe9BuXol61HtmnASAsASvdlBvTBWww4SD-Kt46hUOESR9SzzsT5aDyJT5yRMadsA5HXrHWLIez4o7djkJrU6hOFxd_NXCUwN5iVZss7fLr7Fk7VjxCGbg5qSbYYXxv1m00]--></g></svg>