<svg xmlns="http://www.w3.org/2000/svg" xmlns:xlink="http://www.w3.org/1999/xlink" contentStyleType="text/css" height="915px" preserveAspectRatio="none" style="width:693px;height:915px;background:#FFFFFF;" version="1.1" viewBox="0 0 693 915" width="693px" zoomAndPan="magnify"><defs/><g><ellipse cx="327.4707" cy="20" fill="#222222" rx="10" ry="10" style="stroke:#222222;stroke-width:1;"/><rect fill="#F1F1F1" height="33.9688" rx="12.5" ry="12.5" style="stroke:#181818;stroke-width:0.5;" width="368.2461" x="143.3477" y="50"/><text fill="#000000" font-family="sans-serif" font-size="12" lengthAdjust="spacing" textLength="348.2461" x="153.3477" y="71.1387">percent_di(va_list *args, char *buffer, int *p_buffer_index)</text><rect fill="#F1F1F1" height="33.9688" rx="12.5" ry="12.5" style="stroke:#181818;stroke-width:0.5;" width="171.7285" x="241.6064" y="103.9688"/><text fill="#000000" font-family="sans-serif" font-size="12" lengthAdjust="spacing" textLength="151.7285" x="251.6064" y="125.1074">Extract integer from args</text><polygon fill="#F1F1F1" points="303.5371,157.9375,351.4043,157.9375,363.4043,169.9375,351.4043,181.9375,303.5371,181.9375,291.5371,169.9375,303.5371,157.9375" style="stroke:#181818;stroke-width:0.5;"/><text fill="#000000" font-family="sans-serif" font-size="11" lengthAdjust="spacing" textLength="47.8672" x="303.5371" y="173.7456">num &lt; 0</text><text fill="#000000" font-family="sans-serif" font-size="11" lengthAdjust="spacing" textLength="19.0083" x="272.5288" y="167.3433">yes</text><text fill="#000000" font-family="sans-serif" font-size="11" lengthAdjust="spacing" textLength="13.7017" x="363.4043" y="167.3433">no</text><rect fill="#F1F1F1" height="33.9688" rx="12.5" ry="12.5" style="stroke:#181818;stroke-width:0.5;" width="285.4121" x="49.751" y="191.9375"/><text fill="#000000" font-family="sans-serif" font-size="12" lengthAdjust="spacing" textLength="265.4121" x="59.751" y="213.0762">append_to_buffer(buffer, p_buffer_index, '-')</text><rect fill="#F1F1F1" height="33.9688" rx="12.5" ry="12.5" style="stroke:#181818;stroke-width:0.5;" width="106.4551" x="139.2295" y="245.9063"/><text fill="#000000" font-family="sans-serif" font-size="12" lengthAdjust="spacing" textLength="86.4551" x="149.2295" y="267.0449">char_count++</text><rect fill="#F1F1F1" height="33.9688" rx="12.5" ry="12.5" style="stroke:#181818;stroke-width:0.5;" width="297.5059" x="43.7041" y="299.875"/><text fill="#000000" font-family="sans-serif" font-size="12" lengthAdjust="spacing" textLength="277.5059" x="53.7041" y="321.0137">abs_num = (unsigned int)(-1 * (num + 1)) + 1</text><rect fill="#F1F1F1" height="33.9688" rx="12.5" ry="12.5" style="stroke:#181818;stroke-width:0.5;" width="202.5488" x="361.21" y="191.9375"/><text fill="#000000" font-family="sans-serif" font-size="12" lengthAdjust="spacing" textLength="182.5488" x="371.21" y="213.0762">abs_num = (unsigned int)num</text><polygon fill="#F1F1F1" points="327.4707,339.8438,339.4707,351.8438,327.4707,363.8438,315.4707,351.8438,327.4707,339.8438" style="stroke:#181818;stroke-width:0.5;"/><polygon fill="#F1F1F1" points="286.4517,383.8438,368.4897,383.8438,380.4897,395.8438,368.4897,407.8438,286.4517,407.8438,274.4517,395.8438,286.4517,383.8438" style="stroke:#181818;stroke-width:0.5;"/><text fill="#000000" font-family="sans-serif" font-size="11" lengthAdjust="spacing" textLength="82.0381" x="286.4517" y="399.6519">abs_num == 0</text><text fill="#000000" font-family="sans-serif" font-size="11" lengthAdjust="spacing" textLength="19.0083" x="255.4434" y="393.2495">yes</text><text fill="#000000" font-family="sans-serif" font-size="11" lengthAdjust="spacing" textLength="13.7017" x="380.4897" y="393.2495">no</text><rect fill="#F1F1F1" height="33.9688" rx="12.5" ry="12.5" style="stroke:#181818;stroke-width:0.5;" width="288.7168" x="11" y="417.8438"/><text fill="#000000" font-family="sans-serif" font-size="12" lengthAdjust="spacing" textLength="268.7168" x="21" y="438.9824">append_to_buffer(buffer, p_buffer_index, '0')</text><rect fill="#F1F1F1" height="33.9688" rx="12.5" ry="12.5" style="stroke:#181818;stroke-width:0.5;" width="68.6152" x="121.0508" y="481.7183"/><text fill="#000000" font-family="sans-serif" font-size="12" lengthAdjust="spacing" textLength="48.6152" x="131.0508" y="502.8569">return 1</text><rect fill="#F1F1F1" height="33.9688" rx="12.5" ry="12.5" style="stroke:#181818;stroke-width:0.5;" width="216.084" x="391.541" y="473.5542"/><text fill="#000000" font-family="sans-serif" font-size="12" lengthAdjust="spacing" textLength="196.084" x="401.541" y="494.6929">str[i++] = (abs_num % 10) + '0'</text><rect fill="#F1F1F1" height="33.9688" rx="12.5" ry="12.5" style="stroke:#181818;stroke-width:0.5;" width="111.1191" x="444.0234" y="536.6206"/><text fill="#000000" font-family="sans-serif" font-size="12" lengthAdjust="spacing" textLength="91.1191" x="454.0234" y="557.7593">abs_num /= 10</text><polygon fill="#F1F1F1" points="463.1724,417.8438,535.9937,417.8438,547.9937,429.8438,535.9937,441.8438,463.1724,441.8438,451.1724,429.8438,463.1724,417.8438" style="stroke:#181818;stroke-width:0.5;"/><text fill="#000000" font-family="sans-serif" font-size="11" lengthAdjust="spacing" textLength="22.5747" x="503.583" y="452.0542">true</text><text fill="#000000" font-family="sans-serif" font-size="11" lengthAdjust="spacing" textLength="72.8213" x="463.1724" y="433.6519">abs_num &gt; 0</text><rect fill="#F1F1F1" height="33.9688" rx="12.5" ry="12.5" style="stroke:#181818;stroke-width:0.5;" width="117.418" x="440.874" y="612.5894"/><text fill="#000000" font-family="sans-serif" font-size="12" lengthAdjust="spacing" textLength="97.418" x="450.874" y="633.728">char_count += i</text><rect fill="#F1F1F1" height="33.9688" rx="12.5" ry="12.5" style="stroke:#181818;stroke-width:0.5;" width="311.7324" x="343.7168" y="722.2686"/><text fill="#000000" font-family="sans-serif" font-size="12" lengthAdjust="spacing" textLength="291.7324" x="353.7168" y="743.4072">append_to_buffer(buffer, p_buffer_index, str[--i])</text><polygon fill="#F1F1F1" points="486.4507,666.5581,512.7153,666.5581,524.7153,678.5581,512.7153,690.5581,486.4507,690.5581,474.4507,678.5581,486.4507,666.5581" style="stroke:#181818;stroke-width:0.5;"/><text fill="#000000" font-family="sans-serif" font-size="11" lengthAdjust="spacing" textLength="22.5747" x="503.583" y="700.7686">true</text><text fill="#000000" font-family="sans-serif" font-size="11" lengthAdjust="spacing" textLength="26.2646" x="486.4507" y="682.3662">i &gt; 0</text><rect fill="#F1F1F1" height="33.9688" rx="12.5" ry="12.5" style="stroke:#181818;stroke-width:0.5;" width="127.3262" x="435.9199" y="798.2373"/><text fill="#000000" font-family="sans-serif" font-size="12" lengthAdjust="spacing" textLength="107.3262" x="445.9199" y="819.376">return char_count</text><polygon fill="#F1F1F1" points="327.4707,838.2061,339.4707,850.2061,327.4707,862.2061,315.4707,850.2061,327.4707,838.2061" style="stroke:#181818;stroke-width:0.5;"/><ellipse cx="327.4707" cy="893.2061" fill="none" rx="11" ry="11" style="stroke:#222222;stroke-width:1;"/><ellipse cx="327.4707" cy="893.2061" fill="#222222" rx="6" ry="6" style="stroke:#222222;stroke-width:1;"/><line style="stroke:#181818;stroke-width:1;" x1="327.4707" x2="327.4707" y1="30" y2="50"/><polygon fill="#181818" points="323.4707,40,327.4707,50,331.4707,40,327.4707,44" style="stroke:#181818;stroke-width:1;"/><line style="stroke:#181818;stroke-width:1;" x1="327.4707" x2="327.4707" y1="83.9688" y2="103.9688"/><polygon fill="#181818" points="323.4707,93.9688,327.4707,103.9688,331.4707,93.9688,327.4707,97.9688" style="stroke:#181818;stroke-width:1;"/><line style="stroke:#181818;stroke-width:1;" x1="192.457" x2="192.457" y1="225.9063" y2="245.9063"/><polygon fill="#181818" points="188.457,235.9063,192.457,245.9063,196.457,235.9063,192.457,239.9063" style="stroke:#181818;stroke-width:1;"/><line style="stroke:#181818;stroke-width:1;" x1="192.457" x2="192.457" y1="279.875" y2="299.875"/><polygon fill="#181818" points="188.457,289.875,192.457,299.875,196.457,289.875,192.457,293.875" style="stroke:#181818;stroke-width:1;"/><line style="stroke:#181818;stroke-width:1;" x1="291.5371" x2="192.457" y1="169.9375" y2="169.9375"/><line style="stroke:#181818;stroke-width:1;" x1="192.457" x2="192.457" y1="169.9375" y2="191.9375"/><polygon fill="#181818" points="188.457,181.9375,192.457,191.9375,196.457,181.9375,192.457,185.9375" style="stroke:#181818;stroke-width:1;"/><line style="stroke:#181818;stroke-width:1;" x1="363.4043" x2="462.4844" y1="169.9375" y2="169.9375"/><line style="stroke:#181818;stroke-width:1;" x1="462.4844" x2="462.4844" y1="169.9375" y2="191.9375"/><polygon fill="#181818" points="458.4844,181.9375,462.4844,191.9375,466.4844,181.9375,462.4844,185.9375" style="stroke:#181818;stroke-width:1;"/><line style="stroke:#181818;stroke-width:1;" x1="192.457" x2="192.457" y1="333.8438" y2="351.8438"/><line style="stroke:#181818;stroke-width:1;" x1="192.457" x2="315.4707" y1="351.8438" y2="351.8438"/><polygon fill="#181818" points="305.4707,347.8438,315.4707,351.8438,305.4707,355.8438,309.4707,351.8438" style="stroke:#181818;stroke-width:1;"/><line style="stroke:#181818;stroke-width:1;" x1="462.4844" x2="462.4844" y1="225.9063" y2="351.8438"/><line style="stroke:#181818;stroke-width:1;" x1="462.4844" x2="339.4707" y1="351.8438" y2="351.8438"/><polygon fill="#181818" points="349.4707,347.8438,339.4707,351.8438,349.4707,355.8438,345.4707,351.8438" style="stroke:#181818;stroke-width:1;"/><line style="stroke:#181818;stroke-width:1;" x1="327.4707" x2="327.4707" y1="137.9375" y2="157.9375"/><polygon fill="#181818" points="323.4707,147.9375,327.4707,157.9375,331.4707,147.9375,327.4707,151.9375" style="stroke:#181818;stroke-width:1;"/><line style="stroke:#181818;stroke-width:1;" x1="155.3584" x2="155.3584" y1="451.8125" y2="481.7183"/><polygon fill="#181818" points="151.3584,471.7183,155.3584,481.7183,159.3584,471.7183,155.3584,475.7183" style="stroke:#181818;stroke-width:1;"/><line style="stroke:#181818;stroke-width:1;" x1="499.583" x2="499.583" y1="507.5229" y2="536.6206"/><polygon fill="#181818" points="495.583,526.6206,499.583,536.6206,503.583,526.6206,499.583,530.6206" style="stroke:#181818;stroke-width:1;"/><line style="stroke:#181818;stroke-width:1;" x1="499.583" x2="499.583" y1="441.8438" y2="473.5542"/><polygon fill="#181818" points="495.583,463.5542,499.583,473.5542,503.583,463.5542,499.583,467.5542" style="stroke:#181818;stroke-width:1;"/><line style="stroke:#181818;stroke-width:1;" x1="499.583" x2="499.583" y1="570.5894" y2="580.5894"/><line style="stroke:#181818;stroke-width:1;" x1="499.583" x2="619.625" y1="580.5894" y2="580.5894"/><polygon fill="#181818" points="615.625,516.6206,619.625,506.6206,623.625,516.6206,619.625,512.6206" style="stroke:#181818;stroke-width:1;"/><line style="stroke:#181818;stroke-width:1;" x1="619.625" x2="619.625" y1="429.8438" y2="580.5894"/><line style="stroke:#181818;stroke-width:1;" x1="619.625" x2="547.9937" y1="429.8438" y2="429.8438"/><polygon fill="#181818" points="557.9937,425.8438,547.9937,429.8438,557.9937,433.8438,553.9937,429.8438" style="stroke:#181818;stroke-width:1;"/><line style="stroke:#181818;stroke-width:1;" x1="451.1724" x2="379.541" y1="429.8438" y2="429.8438"/><polygon fill="#181818" points="375.541,502.6206,379.541,512.6206,383.541,502.6206,379.541,506.6206" style="stroke:#181818;stroke-width:1;"/><line style="stroke:#181818;stroke-width:1;" x1="379.541" x2="379.541" y1="429.8438" y2="592.5894"/><line style="stroke:#181818;stroke-width:1;" x1="379.541" x2="499.583" y1="592.5894" y2="592.5894"/><line style="stroke:#181818;stroke-width:1;" x1="499.583" x2="499.583" y1="592.5894" y2="612.5894"/><polygon fill="#181818" points="495.583,602.5894,499.583,612.5894,503.583,602.5894,499.583,606.5894" style="stroke:#181818;stroke-width:1;"/><line style="stroke:#181818;stroke-width:1;" x1="499.583" x2="499.583" y1="690.5581" y2="722.2686"/><polygon fill="#181818" points="495.583,712.2686,499.583,722.2686,503.583,712.2686,499.583,716.2686" style="stroke:#181818;stroke-width:1;"/><line style="stroke:#181818;stroke-width:1;" x1="499.583" x2="499.583" y1="756.2373" y2="766.2373"/><line style="stroke:#181818;stroke-width:1;" x1="499.583" x2="667.4492" y1="766.2373" y2="766.2373"/><polygon fill="#181818" points="663.4492,730.8506,667.4492,720.8506,671.4492,730.8506,667.4492,726.8506" style="stroke:#181818;stroke-width:1;"/><line style="stroke:#181818;stroke-width:1;" x1="667.4492" x2="667.4492" y1="678.5581" y2="766.2373"/><line style="stroke:#181818;stroke-width:1;" x1="667.4492" x2="524.7153" y1="678.5581" y2="678.5581"/><polygon fill="#181818" points="534.7153,674.5581,524.7153,678.5581,534.7153,682.5581,530.7153,678.5581" style="stroke:#181818;stroke-width:1;"/><line style="stroke:#181818;stroke-width:1;" x1="474.4507" x2="331.7168" y1="678.5581" y2="678.5581"/><polygon fill="#181818" points="327.7168,716.8506,331.7168,726.8506,335.7168,716.8506,331.7168,720.8506" style="stroke:#181818;stroke-width:1;"/><line style="stroke:#181818;stroke-width:1;" x1="331.7168" x2="331.7168" y1="678.5581" y2="778.2373"/><line style="stroke:#181818;stroke-width:1;" x1="331.7168" x2="499.583" y1="778.2373" y2="778.2373"/><line style="stroke:#181818;stroke-width:1;" x1="499.583" x2="499.583" y1="778.2373" y2="798.2373"/><polygon fill="#181818" points="495.583,788.2373,499.583,798.2373,503.583,788.2373,499.583,792.2373" style="stroke:#181818;stroke-width:1;"/><line style="stroke:#181818;stroke-width:1;" x1="499.583" x2="499.583" y1="646.5581" y2="666.5581"/><polygon fill="#181818" points="495.583,656.5581,499.583,666.5581,503.583,656.5581,499.583,660.5581" style="stroke:#181818;stroke-width:1;"/><line style="stroke:#181818;stroke-width:1;" x1="274.4517" x2="155.3584" y1="395.8438" y2="395.8438"/><line style="stroke:#181818;stroke-width:1;" x1="155.3584" x2="155.3584" y1="395.8438" y2="417.8438"/><polygon fill="#181818" points="151.3584,407.8438,155.3584,417.8438,159.3584,407.8438,155.3584,411.8438" style="stroke:#181818;stroke-width:1;"/><line style="stroke:#181818;stroke-width:1;" x1="380.4897" x2="499.583" y1="395.8438" y2="395.8438"/><line style="stroke:#181818;stroke-width:1;" x1="499.583" x2="499.583" y1="395.8438" y2="417.8438"/><polygon fill="#181818" points="495.583,407.8438,499.583,417.8438,503.583,407.8438,499.583,411.8438" style="stroke:#181818;stroke-width:1;"/><line style="stroke:#181818;stroke-width:1;" x1="155.3584" x2="155.3584" y1="515.687" y2="850.2061"/><line style="stroke:#181818;stroke-width:1;" x1="155.3584" x2="315.4707" y1="850.2061" y2="850.2061"/><polygon fill="#181818" points="305.4707,846.2061,315.4707,850.2061,305.4707,854.2061,309.4707,850.2061" style="stroke:#181818;stroke-width:1;"/><line style="stroke:#181818;stroke-width:1;" x1="499.583" x2="499.583" y1="832.2061" y2="850.2061"/><line style="stroke:#181818;stroke-width:1;" x1="499.583" x2="339.4707" y1="850.2061" y2="850.2061"/><polygon fill="#181818" points="349.4707,846.2061,339.4707,850.2061,349.4707,854.2061,345.4707,850.2061" style="stroke:#181818;stroke-width:1;"/><line style="stroke:#181818;stroke-width:1;" x1="327.4707" x2="327.4707" y1="363.8438" y2="383.8438"/><polygon fill="#181818" points="323.4707,373.8438,327.4707,383.8438,331.4707,373.8438,327.4707,377.8438" style="stroke:#181818;stroke-width:1;"/><line style="stroke:#181818;stroke-width:1;" x1="327.4707" x2="327.4707" y1="862.2061" y2="882.2061"/><polygon fill="#181818" points="323.4707,872.2061,327.4707,882.2061,331.4707,872.2061,327.4707,876.2061" style="stroke:#181818;stroke-width:1;"/><!--SRC=[fP3BReCm44NtVCLigjW1LBA5q5s_eeei1uPa96AGFRJftzVc4VfMfNfXoJDtVEuTnzfo5EKzsWeDgvh4irOjEOQjjYUNG7NM5hR7eMdG9a36DterFHMP6g-oYFB7ArjTSMZZ2Iqqjhj0c2yYQa2OuG9xo2Jm6Gs8LtGo0dzotVTeQiNT_ADOE1yH2MpIZUUCCy6Gghh1S1pF9NrqAZ1A48DnT39O1ojIf3lOJlWOTbA6kuYmTUYBdVnzsDUyrjJKZ1bkil9_GR9R48iyMFFLqSkPMbo13u573WJR0IV5EExOFb4S7uBnHNi7kooaz9HYLIxT-zAtfxetEs8-hnJY4gXuRuD-DF3dpC5fcj91ViUUjx1QM9RkkElV0000]--></g></svg>