<svg xmlns="http://www.w3.org/2000/svg" xmlns:xlink="http://www.w3.org/1999/xlink" contentStyleType="text/css" height="244px" preserveAspectRatio="none" style="width:425px;height:244px;background:#FFFFFF;" version="1.1" viewBox="0 0 425 244" width="425px" zoomAndPan="magnify"><defs/><g><ellipse cx="212.7598" cy="20" fill="#222222" rx="10" ry="10" style="stroke:#222222;stroke-width:1;"/><rect fill="#F1F1F1" height="33.9688" rx="12.5" ry="12.5" style="stroke:#181818;stroke-width:0.5;" width="403.5195" x="11" y="50"/><text fill="#000000" font-family="sans-serif" font-size="12" lengthAdjust="spacing" textLength="383.5195" x="21" y="71.1387">percent_percent(va_list *args, char *buffer, int *p_buffer_index)</text><rect fill="#F1F1F1" height="33.9688" rx="12.5" ry="12.5" style="stroke:#181818;stroke-width:0.5;" width="292.4844" x="66.5176" y="103.9688"/><text fill="#000000" font-family="sans-serif" font-size="12" lengthAdjust="spacing" textLength="272.4844" x="76.5176" y="125.1074">append_to_buffer(buffer, p_buffer_index, '%')</text><rect fill="#F1F1F1" height="33.9688" rx="12.5" ry="12.5" style="stroke:#181818;stroke-width:0.5;" width="68.6152" x="178.4521" y="157.9375"/><text fill="#000000" font-family="sans-serif" font-size="12" lengthAdjust="spacing" textLength="48.6152" x="188.4521" y="179.0762">return 1</text><ellipse cx="212.7598" cy="222.9063" fill="none" rx="11" ry="11" style="stroke:#222222;stroke-width:1;"/><ellipse cx="212.7598" cy="222.9063" fill="#222222" rx="6" ry="6" style="stroke:#222222;stroke-width:1;"/><line style="stroke:#181818;stroke-width:1;" x1="212.7598" x2="212.7598" y1="30" y2="50"/><polygon fill="#181818" points="208.7598,40,212.7598,50,216.7598,40,212.7598,44" style="stroke:#181818;stroke-width:1;"/><line style="stroke:#181818;stroke-width:1;" x1="212.7598" x2="212.7598" y1="83.9688" y2="103.9688"/><polygon fill="#181818" points="208.7598,93.9688,212.7598,103.9688,216.7598,93.9688,212.7598,97.9688" style="stroke:#181818;stroke-width:1;"/><line style="stroke:#181818;stroke-width:1;" x1="212.7598" x2="212.7598" y1="137.9375" y2="157.9375"/><polygon fill="#181818" points="208.7598,147.9375,212.7598,157.9375,216.7598,147.9375,212.7598,151.9375" style="stroke:#181818;stroke-width:1;"/><line style="stroke:#181818;stroke-width:1;" x1="212.7598" x2="212.7598" y1="191.9063" y2="211.9063"/><polygon fill="#181818" points="208.7598,201.9063,212.7598,211.9063,216.7598,201.9063,212.7598,205.9063" style="stroke:#181818;stroke-width:1;"/><!--SRC=[LSen2eH038NXVawHHdHb6bizJ8WQru4bXamKZw-Y5biz7l-NdSn3Q9LjO75yjje8Voaxr6JV766OoQ3krsbYYv3a38htnIGZxvykjAJACg8lJwbU_qyZb4LvUMDVJQ3fGlP53m00]--></g></svg>