<svg xmlns="http://www.w3.org/2000/svg" xmlns:xlink="http://www.w3.org/1999/xlink" contentStyleType="text/css" height="298px" preserveAspectRatio="none" style="width:385px;height:298px;background:#FFFFFF;" version="1.1" viewBox="0 0 385 298" width="385px" zoomAndPan="magnify"><defs/><g><ellipse cx="192.9463" cy="20" fill="#222222" rx="10" ry="10" style="stroke:#222222;stroke-width:1;"/><rect fill="#F1F1F1" height="33.9688" rx="12.5" ry="12.5" style="stroke:#181818;stroke-width:0.5;" width="363.8926" x="11" y="50"/><text fill="#000000" font-family="sans-serif" font-size="12" lengthAdjust="spacing" textLength="343.8926" x="21" y="71.1387">percent_c(va_list *args, char *buffer, int *p_buffer_index)</text><rect fill="#F1F1F1" height="33.9688" rx="12.5" ry="12.5" style="stroke:#181818;stroke-width:0.5;" width="186.2305" x="99.8311" y="103.9688"/><text fill="#000000" font-family="sans-serif" font-size="12" lengthAdjust="spacing" textLength="166.2305" x="109.8311" y="125.1074">Extract character from args</text><rect fill="#F1F1F1" height="33.9688" rx="12.5" ry="12.5" style="stroke:#181818;stroke-width:0.5;" width="281.082" x="52.4053" y="157.9375"/><text fill="#000000" font-family="sans-serif" font-size="12" lengthAdjust="spacing" textLength="261.082" x="62.4053" y="179.0762">append_to_buffer(buffer, p_buffer_index, c)</text><rect fill="#F1F1F1" height="33.9688" rx="12.5" ry="12.5" style="stroke:#181818;stroke-width:0.5;" width="68.6152" x="158.6387" y="211.9063"/><text fill="#000000" font-family="sans-serif" font-size="12" lengthAdjust="spacing" textLength="48.6152" x="168.6387" y="233.0449">return 1</text><ellipse cx="192.9463" cy="276.875" fill="none" rx="11" ry="11" style="stroke:#222222;stroke-width:1;"/><ellipse cx="192.9463" cy="276.875" fill="#222222" rx="6" ry="6" style="stroke:#222222;stroke-width:1;"/><line style="stroke:#181818;stroke-width:1;" x1="192.9463" x2="192.9463" y1="30" y2="50"/><polygon fill="#181818" points="188.9463,40,192.9463,50,196.9463,40,192.9463,44" style="stroke:#181818;stroke-width:1;"/><line style="stroke:#181818;stroke-width:1;" x1="192.9463" x2="192.9463" y1="83.9688" y2="103.9688"/><polygon fill="#181818" points="188.9463,93.9688,192.9463,103.9688,196.9463,93.9688,192.9463,97.9688" style="stroke:#181818;stroke-width:1;"/><line style="stroke:#181818;stroke-width:1;" x1="192.9463" x2="192.9463" y1="137.9375" y2="157.9375"/><polygon fill="#181818" points="188.9463,147.9375,192.9463,157.9375,196.9463,147.9375,192.9463,151.9375" style="stroke:#181818;stroke-width:1;"/><line style="stroke:#181818;stroke-width:1;" x1="192.9463" x2="192.9463" y1="191.9063" y2="211.9063"/><polygon fill="#181818" points="188.9463,201.9063,192.9463,211.9063,196.9463,201.9063,192.9463,205.9063" style="stroke:#181818;stroke-width:1;"/><line style="stroke:#181818;stroke-width:1;" x1="192.9463" x2="192.9463" y1="245.875" y2="265.875"/><polygon fill="#181818" points="188.9463,255.875,192.9463,265.875,196.9463,255.875,192.9463,259.875" style="stroke:#181818;stroke-width:1;"/><!--SRC=[LOsz3eCm38JtF8L7YbYwmjpdiDpWb4YjOpccul49_HcOJgUx-wuwcOSmAbjaSOpTc_2PgqDFzgW3n8KC-lkQ4ji0MLgW-BMOPURjCeNnjhbHz4-vAHiaAoyu22qbLPOPlVnstPzs1hMlWsNigmbSfr2zw0u0]--></g></svg>