<svg xmlns="http://www.w3.org/2000/svg" xmlns:xlink="http://www.w3.org/1999/xlink" contentStyleType="text/css" height="298px" preserveAspectRatio="none" style="width:490px;height:298px;background:#FFFFFF;" version="1.1" viewBox="0 0 490 298" width="490px" zoomAndPan="magnify"><defs/><g><ellipse cx="245.4258" cy="20" fill="#222222" rx="10" ry="10" style="stroke:#222222;stroke-width:1;"/><rect fill="#F1F1F1" height="33.9688" rx="12.5" ry="12.5" style="stroke:#181818;stroke-width:0.5;" width="468.8516" x="11" y="50"/><text fill="#000000" font-family="sans-serif" font-size="12" lengthAdjust="spacing" textLength="448.8516" x="21" y="71.1387">percent_unknown(char unknown_format, char *buffer, int *p_buffer_index)</text><rect fill="#F1F1F1" height="33.9688" rx="12.5" ry="12.5" style="stroke:#181818;stroke-width:0.5;" width="292.4844" x="99.1836" y="103.9688"/><text fill="#000000" font-family="sans-serif" font-size="12" lengthAdjust="spacing" textLength="272.4844" x="109.1836" y="125.1074">append_to_buffer(buffer, p_buffer_index, '%')</text><rect fill="#F1F1F1" height="33.9688" rx="12.5" ry="12.5" style="stroke:#181818;stroke-width:0.5;" width="375.2598" x="57.7959" y="157.9375"/><text fill="#000000" font-family="sans-serif" font-size="12" lengthAdjust="spacing" textLength="355.2598" x="67.7959" y="179.0762">append_to_buffer(buffer, p_buffer_index, unknown_format)</text><rect fill="#F1F1F1" height="33.9688" rx="12.5" ry="12.5" style="stroke:#181818;stroke-width:0.5;" width="68.6152" x="211.1182" y="211.9063"/><text fill="#000000" font-family="sans-serif" font-size="12" lengthAdjust="spacing" textLength="48.6152" x="221.1182" y="233.0449">return 2</text><ellipse cx="245.4258" cy="276.875" fill="none" rx="11" ry="11" style="stroke:#222222;stroke-width:1;"/><ellipse cx="245.4258" cy="276.875" fill="#222222" rx="6" ry="6" style="stroke:#222222;stroke-width:1;"/><line style="stroke:#181818;stroke-width:1;" x1="245.4258" x2="245.4258" y1="30" y2="50"/><polygon fill="#181818" points="241.4258,40,245.4258,50,249.4258,40,245.4258,44" style="stroke:#181818;stroke-width:1;"/><line style="stroke:#181818;stroke-width:1;" x1="245.4258" x2="245.4258" y1="83.9688" y2="103.9688"/><polygon fill="#181818" points="241.4258,93.9688,245.4258,103.9688,249.4258,93.9688,245.4258,97.9688" style="stroke:#181818;stroke-width:1;"/><line style="stroke:#181818;stroke-width:1;" x1="245.4258" x2="245.4258" y1="137.9375" y2="157.9375"/><polygon fill="#181818" points="241.4258,147.9375,245.4258,157.9375,249.4258,147.9375,245.4258,151.9375" style="stroke:#181818;stroke-width:1;"/><line style="stroke:#181818;stroke-width:1;" x1="245.4258" x2="245.4258" y1="191.9063" y2="211.9063"/><polygon fill="#181818" points="241.4258,201.9063,245.4258,211.9063,249.4258,201.9063,245.4258,205.9063" style="stroke:#181818;stroke-width:1;"/><line style="stroke:#181818;stroke-width:1;" x1="245.4258" x2="245.4258" y1="245.875" y2="265.875"/><polygon fill="#181818" points="241.4258,255.875,245.4258,265.875,249.4258,255.875,245.4258,259.875" style="stroke:#181818;stroke-width:1;"/><!--SRC=[bOux3eGm34JxdC8DWaMfjeJ3M04SWLRhMCOH71_nAoWftymRQMOBQiurGjeJ6sR-SLguwiUWS076fFzW7ewmxdACf1ucDgW5JyI91re_hMk22F60bgwcklsdwg4iobV-yyq-LRAi3D_MpPPa0m00]--></g></svg>