<svg xmlns="http://www.w3.org/2000/svg" xmlns:xlink="http://www.w3.org/1999/xlink" contentStyleType="text/css" height="897px" preserveAspectRatio="none" style="width:1057px;height:897px;background:#FFFFFF;" version="1.1" viewBox="0 0 1057 897" width="1057px" zoomAndPan="magnify"><defs/><g><ellipse cx="330.8992" cy="20" fill="#222222" rx="10" ry="10" style="stroke:#222222;stroke-width:1;"/><rect fill="#F1F1F1" height="33.9688" rx="12.5" ry="12.5" style="stroke:#181818;stroke-width:0.5;" width="199.7246" x="231.0369" y="50"/><text fill="#000000" font-family="sans-serif" font-size="12" lengthAdjust="spacing" textLength="179.7246" x="241.0369" y="71.1387">_printf(const char *format, ...)</text><polygon fill="#F1F1F1" points="290.2937,103.9688,371.5046,103.9688,383.5046,115.9688,371.5046,127.9688,290.2937,127.9688,278.2937,115.9688,290.2937,103.9688" style="stroke:#181818;stroke-width:0.5;"/><text fill="#000000" font-family="sans-serif" font-size="11" lengthAdjust="spacing" textLength="81.2109" x="290.2937" y="119.7769">format is NULL</text><text fill="#000000" font-family="sans-serif" font-size="11" lengthAdjust="spacing" textLength="19.0083" x="259.2854" y="113.3745">yes</text><text fill="#000000" font-family="sans-serif" font-size="11" lengthAdjust="spacing" textLength="13.7017" x="383.5046" y="113.3745">no</text><rect fill="#F1F1F1" height="33.9688" rx="12.5" ry="12.5" style="stroke:#181818;stroke-width:0.5;" width="76.3496" x="11" y="137.9688"/><text fill="#000000" font-family="sans-serif" font-size="12" lengthAdjust="spacing" textLength="56.3496" x="21" y="159.1074">Return -1</text><rect fill="#F1F1F1" height="33.9688" rx="12.5" ry="12.5" style="stroke:#181818;stroke-width:0.5;" width="194.8906" x="551.1782" y="137.9688"/><text fill="#000000" font-family="sans-serif" font-size="12" lengthAdjust="spacing" textLength="174.8906" x="561.1782" y="159.1074">Initialize buffer and variables</text><rect fill="#F1F1F1" height="33.9688" rx="12.5" ry="12.5" style="stroke:#181818;stroke-width:0.5;" width="239.2461" x="529.0005" y="191.9375"/><text fill="#000000" font-family="sans-serif" font-size="12" lengthAdjust="spacing" textLength="219.2461" x="539.0005" y="213.0762">Start processing variable arguments</text><polygon fill="#F1F1F1" points="584.3396,301.6167,712.9075,301.6167,724.9075,313.6167,712.9075,325.6167,584.3396,325.6167,572.3396,313.6167,584.3396,301.6167" style="stroke:#181818;stroke-width:0.5;"/><text fill="#000000" font-family="sans-serif" font-size="11" lengthAdjust="spacing" textLength="128.5679" x="584.3396" y="317.4248">current character is '%'</text><text fill="#000000" font-family="sans-serif" font-size="11" lengthAdjust="spacing" textLength="19.0083" x="553.3313" y="311.0225">yes</text><text fill="#000000" font-family="sans-serif" font-size="11" lengthAdjust="spacing" textLength="13.7017" x="724.9075" y="311.0225">no</text><rect fill="#F1F1F1" height="33.9688" rx="12.5" ry="12.5" style="stroke:#181818;stroke-width:0.5;" width="159.9277" x="316.4248" y="335.6167"/><text fill="#000000" font-family="sans-serif" font-size="12" lengthAdjust="spacing" textLength="139.9277" x="326.4248" y="356.7554">Move to next character</text><polygon fill="#F1F1F1" points="313.1851,389.5854,479.5923,389.5854,491.5923,401.5854,479.5923,413.5854,313.1851,413.5854,301.1851,401.5854,313.1851,389.5854" style="stroke:#181818;stroke-width:0.5;"/><text fill="#000000" font-family="sans-serif" font-size="11" lengthAdjust="spacing" textLength="166.4072" x="313.1851" y="405.3936">next character is end of string</text><text fill="#000000" font-family="sans-serif" font-size="11" lengthAdjust="spacing" textLength="19.0083" x="282.1768" y="398.9912">yes</text><text fill="#000000" font-family="sans-serif" font-size="11" lengthAdjust="spacing" textLength="13.7017" x="491.5923" y="398.9912">no</text><rect fill="#F1F1F1" height="33.9688" rx="12.5" ry="12.5" style="stroke:#181818;stroke-width:0.5;" width="232.7363" x="115.3496" y="423.5854"/><text fill="#000000" font-family="sans-serif" font-size="12" lengthAdjust="spacing" textLength="212.7363" x="125.3496" y="444.7241">End processing variable arguments</text><rect fill="#F1F1F1" height="33.9688" rx="12.5" ry="12.5" style="stroke:#181818;stroke-width:0.5;" width="76.3496" x="193.543" y="482.6519"/><text fill="#000000" font-family="sans-serif" font-size="12" lengthAdjust="spacing" textLength="56.3496" x="203.543" y="503.7905">Return -1</text><rect fill="#F1F1F1" height="33.9688" rx="12.5" ry="12.5" style="stroke:#181818;stroke-width:0.5;" width="385.9473" x="368.0859" y="423.5854"/><text fill="#000000" font-family="sans-serif" font-size="12" lengthAdjust="spacing" textLength="365.9473" x="378.0859" y="444.7241">Handle format specifier and update printed characters count</text><polygon fill="#F1F1F1" points="396.3887,522.6206,408.3887,534.6206,396.3887,546.6206,384.3887,534.6206,396.3887,522.6206" style="stroke:#181818;stroke-width:0.5;"/><rect fill="#F1F1F1" height="33.9688" rx="12.5" ry="12.5" style="stroke:#181818;stroke-width:0.5;" width="207.9629" x="796.877" y="335.6167"/><text fill="#000000" font-family="sans-serif" font-size="12" lengthAdjust="spacing" textLength="187.9629" x="806.877" y="356.7554">Add current character to buffer</text><rect fill="#F1F1F1" height="33.9688" rx="12.5" ry="12.5" style="stroke:#181818;stroke-width:0.5;" width="233.6504" x="784.0332" y="389.5854"/><text fill="#000000" font-family="sans-serif" font-size="12" lengthAdjust="spacing" textLength="213.6504" x="794.0332" y="410.7241">Increment printed characters count</text><polygon fill="#F1F1F1" points="648.6235,552.6206,660.6235,564.6206,648.6235,576.6206,636.6235,564.6206,648.6235,552.6206" style="stroke:#181818;stroke-width:0.5;"/><rect fill="#F1F1F1" height="33.9688" rx="12.5" ry="12.5" style="stroke:#181818;stroke-width:0.5;" width="159.9277" x="568.6597" y="596.6206"/><text fill="#000000" font-family="sans-serif" font-size="12" lengthAdjust="spacing" textLength="139.9277" x="578.6597" y="617.7593">Move to next character</text><polygon fill="#F1F1F1" points="519.9294,245.9063,777.3176,245.9063,789.3176,257.9063,777.3176,269.9063,519.9294,269.9063,507.9294,257.9063,519.9294,245.9063" style="stroke:#181818;stroke-width:0.5;"/><text fill="#000000" font-family="sans-serif" font-size="11" lengthAdjust="spacing" textLength="22.5747" x="652.6235" y="280.1167">true</text><text fill="#000000" font-family="sans-serif" font-size="11" lengthAdjust="spacing" textLength="257.3882" x="519.9294" y="261.7144">current character in format is not end of string</text><rect fill="#F1F1F1" height="33.9688" rx="12.5" ry="12.5" style="stroke:#181818;stroke-width:0.5;" width="91.502" x="602.8726" y="672.5894"/><text fill="#000000" font-family="sans-serif" font-size="12" lengthAdjust="spacing" textLength="71.502" x="612.8726" y="693.728">Flush buffer</text><rect fill="#F1F1F1" height="33.9688" rx="12.5" ry="12.5" style="stroke:#181818;stroke-width:0.5;" width="232.7363" x="532.2554" y="726.5581"/><text fill="#000000" font-family="sans-serif" font-size="12" lengthAdjust="spacing" textLength="212.7363" x="542.2554" y="747.6968">End processing variable arguments</text><rect fill="#F1F1F1" height="33.9688" rx="12.5" ry="12.5" style="stroke:#181818;stroke-width:0.5;" width="244.0332" x="526.6069" y="780.5269"/><text fill="#000000" font-family="sans-serif" font-size="12" lengthAdjust="spacing" textLength="224.0332" x="536.6069" y="801.6655">Return total printed characters count</text><polygon fill="#F1F1F1" points="330.8992,820.4956,342.8992,832.4956,330.8992,844.4956,318.8992,832.4956,330.8992,820.4956" style="stroke:#181818;stroke-width:0.5;"/><ellipse cx="330.8992" cy="875.4956" fill="none" rx="11" ry="11" style="stroke:#222222;stroke-width:1;"/><ellipse cx="330.8992" cy="875.4956" fill="#222222" rx="6" ry="6" style="stroke:#222222;stroke-width:1;"/><line style="stroke:#181818;stroke-width:1;" x1="330.8992" x2="330.8992" y1="30" y2="50"/><polygon fill="#181818" points="326.8992,40,330.8992,50,334.8992,40,330.8992,44" style="stroke:#181818;stroke-width:1;"/><line style="stroke:#181818;stroke-width:1;" x1="648.6235" x2="648.6235" y1="171.9375" y2="191.9375"/><polygon fill="#181818" points="644.6235,181.9375,648.6235,191.9375,652.6235,181.9375,648.6235,185.9375" style="stroke:#181818;stroke-width:1;"/><line style="stroke:#181818;stroke-width:1;" x1="231.7178" x2="231.7178" y1="457.5542" y2="482.6519"/><polygon fill="#181818" points="227.7178,472.6519,231.7178,482.6519,235.7178,472.6519,231.7178,476.6519" style="stroke:#181818;stroke-width:1;"/><line style="stroke:#181818;stroke-width:1;" x1="301.1851" x2="231.7178" y1="401.5854" y2="401.5854"/><line style="stroke:#181818;stroke-width:1;" x1="231.7178" x2="231.7178" y1="401.5854" y2="423.5854"/><polygon fill="#181818" points="227.7178,413.5854,231.7178,423.5854,235.7178,413.5854,231.7178,417.5854" style="stroke:#181818;stroke-width:1;"/><line style="stroke:#181818;stroke-width:1;" x1="491.5923" x2="561.0596" y1="401.5854" y2="401.5854"/><line style="stroke:#181818;stroke-width:1;" x1="561.0596" x2="561.0596" y1="401.5854" y2="423.5854"/><polygon fill="#181818" points="557.0596,413.5854,561.0596,423.5854,565.0596,413.5854,561.0596,417.5854" style="stroke:#181818;stroke-width:1;"/><line style="stroke:#181818;stroke-width:1;" x1="231.7178" x2="231.7178" y1="516.6206" y2="534.6206"/><line style="stroke:#181818;stroke-width:1;" x1="231.7178" x2="384.3887" y1="534.6206" y2="534.6206"/><polygon fill="#181818" points="374.3887,530.6206,384.3887,534.6206,374.3887,538.6206,378.3887,534.6206" style="stroke:#181818;stroke-width:1;"/><line style="stroke:#181818;stroke-width:1;" x1="561.0596" x2="561.0596" y1="457.5542" y2="534.6206"/><line style="stroke:#181818;stroke-width:1;" x1="561.0596" x2="408.3887" y1="534.6206" y2="534.6206"/><polygon fill="#181818" points="418.3887,530.6206,408.3887,534.6206,418.3887,538.6206,414.3887,534.6206" style="stroke:#181818;stroke-width:1;"/><line style="stroke:#181818;stroke-width:1;" x1="396.3887" x2="396.3887" y1="369.5854" y2="389.5854"/><polygon fill="#181818" points="392.3887,379.5854,396.3887,389.5854,400.3887,379.5854,396.3887,383.5854" style="stroke:#181818;stroke-width:1;"/><line style="stroke:#181818;stroke-width:1;" x1="900.8584" x2="900.8584" y1="369.5854" y2="389.5854"/><polygon fill="#181818" points="896.8584,379.5854,900.8584,389.5854,904.8584,379.5854,900.8584,383.5854" style="stroke:#181818;stroke-width:1;"/><line style="stroke:#181818;stroke-width:1;" x1="572.3396" x2="396.3887" y1="313.6167" y2="313.6167"/><line style="stroke:#181818;stroke-width:1;" x1="396.3887" x2="396.3887" y1="313.6167" y2="335.6167"/><polygon fill="#181818" points="392.3887,325.6167,396.3887,335.6167,400.3887,325.6167,396.3887,329.6167" style="stroke:#181818;stroke-width:1;"/><line style="stroke:#181818;stroke-width:1;" x1="724.9075" x2="900.8584" y1="313.6167" y2="313.6167"/><line style="stroke:#181818;stroke-width:1;" x1="900.8584" x2="900.8584" y1="313.6167" y2="335.6167"/><polygon fill="#181818" points="896.8584,325.6167,900.8584,335.6167,904.8584,325.6167,900.8584,329.6167" style="stroke:#181818;stroke-width:1;"/><line style="stroke:#181818;stroke-width:1;" x1="396.3887" x2="396.3887" y1="546.6206" y2="564.6206"/><line style="stroke:#181818;stroke-width:1;" x1="396.3887" x2="636.6235" y1="564.6206" y2="564.6206"/><polygon fill="#181818" points="626.6235,560.6206,636.6235,564.6206,626.6235,568.6206,630.6235,564.6206" style="stroke:#181818;stroke-width:1;"/><line style="stroke:#181818;stroke-width:1;" x1="900.8584" x2="900.8584" y1="423.5542" y2="564.6206"/><line style="stroke:#181818;stroke-width:1;" x1="900.8584" x2="660.6235" y1="564.6206" y2="564.6206"/><polygon fill="#181818" points="670.6235,560.6206,660.6235,564.6206,670.6235,568.6206,666.6235,564.6206" style="stroke:#181818;stroke-width:1;"/><line style="stroke:#181818;stroke-width:1;" x1="648.6235" x2="648.6235" y1="576.6206" y2="596.6206"/><polygon fill="#181818" points="644.6235,586.6206,648.6235,596.6206,652.6235,586.6206,648.6235,590.6206" style="stroke:#181818;stroke-width:1;"/><line style="stroke:#181818;stroke-width:1;" x1="648.6235" x2="648.6235" y1="269.9063" y2="301.6167"/><polygon fill="#181818" points="644.6235,291.6167,648.6235,301.6167,652.6235,291.6167,648.6235,295.6167" style="stroke:#181818;stroke-width:1;"/><line style="stroke:#181818;stroke-width:1;" x1="648.6235" x2="648.6235" y1="630.5894" y2="640.5894"/><line style="stroke:#181818;stroke-width:1;" x1="648.6235" x2="1031.6836" y1="640.5894" y2="640.5894"/><polygon fill="#181818" points="1027.6836,462.6519,1031.6836,452.6519,1035.6836,462.6519,1031.6836,458.6519" style="stroke:#181818;stroke-width:1;"/><line style="stroke:#181818;stroke-width:1;" x1="1031.6836" x2="1031.6836" y1="257.9063" y2="640.5894"/><line style="stroke:#181818;stroke-width:1;" x1="1031.6836" x2="789.3176" y1="257.9063" y2="257.9063"/><polygon fill="#181818" points="799.3176,253.9063,789.3176,257.9063,799.3176,261.9063,795.3176,257.9063" style="stroke:#181818;stroke-width:1;"/><line style="stroke:#181818;stroke-width:1;" x1="507.9294" x2="101.3496" y1="257.9063" y2="257.9063"/><polygon fill="#181818" points="97.3496,448.6519,101.3496,458.6519,105.3496,448.6519,101.3496,452.6519" style="stroke:#181818;stroke-width:1;"/><line style="stroke:#181818;stroke-width:1;" x1="101.3496" x2="101.3496" y1="257.9063" y2="652.5894"/><line style="stroke:#181818;stroke-width:1;" x1="101.3496" x2="648.6235" y1="652.5894" y2="652.5894"/><line style="stroke:#181818;stroke-width:1;" x1="648.6235" x2="648.6235" y1="652.5894" y2="672.5894"/><polygon fill="#181818" points="644.6235,662.5894,648.6235,672.5894,652.6235,662.5894,648.6235,666.5894" style="stroke:#181818;stroke-width:1;"/><line style="stroke:#181818;stroke-width:1;" x1="648.6235" x2="648.6235" y1="225.9063" y2="245.9063"/><polygon fill="#181818" points="644.6235,235.9063,648.6235,245.9063,652.6235,235.9063,648.6235,239.9063" style="stroke:#181818;stroke-width:1;"/><line style="stroke:#181818;stroke-width:1;" x1="648.6235" x2="648.6235" y1="706.5581" y2="726.5581"/><polygon fill="#181818" points="644.6235,716.5581,648.6235,726.5581,652.6235,716.5581,648.6235,720.5581" style="stroke:#181818;stroke-width:1;"/><line style="stroke:#181818;stroke-width:1;" x1="648.6235" x2="648.6235" y1="760.5269" y2="780.5269"/><polygon fill="#181818" points="644.6235,770.5269,648.6235,780.5269,652.6235,770.5269,648.6235,774.5269" style="stroke:#181818;stroke-width:1;"/><line style="stroke:#181818;stroke-width:1;" x1="278.2937" x2="49.1748" y1="115.9688" y2="115.9688"/><line style="stroke:#181818;stroke-width:1;" x1="49.1748" x2="49.1748" y1="115.9688" y2="137.9688"/><polygon fill="#181818" points="45.1748,127.9688,49.1748,137.9688,53.1748,127.9688,49.1748,131.9688" style="stroke:#181818;stroke-width:1;"/><line style="stroke:#181818;stroke-width:1;" x1="383.5046" x2="648.6235" y1="115.9688" y2="115.9688"/><line style="stroke:#181818;stroke-width:1;" x1="648.6235" x2="648.6235" y1="115.9688" y2="137.9688"/><polygon fill="#181818" points="644.6235,127.9688,648.6235,137.9688,652.6235,127.9688,648.6235,131.9688" style="stroke:#181818;stroke-width:1;"/><line style="stroke:#181818;stroke-width:1;" x1="49.1748" x2="49.1748" y1="171.9375" y2="832.4956"/><line style="stroke:#181818;stroke-width:1;" x1="49.1748" x2="318.8992" y1="832.4956" y2="832.4956"/><polygon fill="#181818" points="308.8992,828.4956,318.8992,832.4956,308.8992,836.4956,312.8992,832.4956" style="stroke:#181818;stroke-width:1;"/><line style="stroke:#181818;stroke-width:1;" x1="648.6235" x2="648.6235" y1="814.4956" y2="832.4956"/><line style="stroke:#181818;stroke-width:1;" x1="648.6235" x2="342.8992" y1="832.4956" y2="832.4956"/><polygon fill="#181818" points="352.8992,828.4956,342.8992,832.4956,352.8992,836.4956,348.8992,832.4956" style="stroke:#181818;stroke-width:1;"/><line style="stroke:#181818;stroke-width:1;" x1="330.8992" x2="330.8992" y1="83.9688" y2="103.9688"/><polygon fill="#181818" points="326.8992,93.9688,330.8992,103.9688,334.8992,93.9688,330.8992,97.9688" style="stroke:#181818;stroke-width:1;"/><line style="stroke:#181818;stroke-width:1;" x1="330.8992" x2="330.8992" y1="844.4956" y2="864.4956"/><polygon fill="#181818" points="326.8992,854.4956,330.8992,864.4956,334.8992,854.4956,330.8992,858.4956" style="stroke:#181818;stroke-width:1;"/><!--SRC=[ZL9DJyCm3BttL_Y2rYAOnBKzSG21D3Y0EACiTTP8dLF5plZuzQGVOyi6qt9qdjzxVZQByf9bvNldBOd9jICMq8toS6cSNokvWlbyNbIPDP2F5R0Cps-BHG7I847-XLna45_vWX8ymVLDbM7B23cvwUUHh5ZLsc-4PJ06FIYgOQEyLSiMkHfHhxqRwBpJo6nfzGi0vLTXZIGJygEniPZhu7qi3dwLbiXg2NOcoGbWb746ME9ygwAlvk83ZhRwry_r1m_3x69sDE7sbKzkWo0E23_tsge4r3Ed_ptjWQ5_10QHkmWz8uoaPsy5-_Lq7Kd7Gzn499rYumwrDNPQKEXg9GZ3SM2z6uH1kq1oe46rDTbfnVAsZZH7SSSanxD86UFPQ8_zg6TOIELFRYX2XmiQh-w-3Tma-kSclqrRdAZsXCNH6elhVW00]--></g></svg>