<svg xmlns="http://www.w3.org/2000/svg" xmlns:xlink="http://www.w3.org/1999/xlink" contentStyleType="text/css" height="897px" preserveAspectRatio="none" style="width:1253px;height:897px;background:#FFFFFF;" version="1.1" viewBox="0 0 1253 897" width="1253px" zoomAndPan="magnify"><defs/><g><ellipse cx="342.1991" cy="20" fill="#222222" rx="10" ry="10" style="stroke:#222222;stroke-width:1;"/><rect fill="#F1F1F1" height="33.9688" rx="12.5" ry="12.5" style="stroke:#181818;stroke-width:0.5;" width="199.7246" x="242.3368" y="50"/><text fill="#000000" font-family="sans-serif" font-size="12" lengthAdjust="spacing" textLength="179.7246" x="252.3368" y="71.1387">_printf(const char *format, ...)</text><polygon fill="#F1F1F1" points="296.7704,103.9688,387.6278,103.9688,399.6278,115.9688,387.6278,127.9688,296.7704,127.9688,284.7704,115.9688,296.7704,103.9688" style="stroke:#181818;stroke-width:0.5;"/><text fill="#000000" font-family="sans-serif" font-size="11" lengthAdjust="spacing" textLength="90.8574" x="296.7704" y="119.7769">format == NULL</text><text fill="#000000" font-family="sans-serif" font-size="11" lengthAdjust="spacing" textLength="19.0083" x="265.7621" y="113.3745">yes</text><text fill="#000000" font-family="sans-serif" font-size="11" lengthAdjust="spacing" textLength="13.7017" x="399.6278" y="113.3745">no</text><rect fill="#F1F1F1" height="33.9688" rx="12.5" ry="12.5" style="stroke:#181818;stroke-width:0.5;" width="72.9453" x="11" y="137.9688"/><text fill="#000000" font-family="sans-serif" font-size="12" lengthAdjust="spacing" textLength="52.9453" x="21" y="159.1074">return -1</text><rect fill="#F1F1F1" height="33.9688" rx="12.5" ry="12.5" style="stroke:#181818;stroke-width:0.5;" width="194.8906" x="585.4802" y="137.9688"/><text fill="#000000" font-family="sans-serif" font-size="12" lengthAdjust="spacing" textLength="174.8906" x="595.4802" y="159.1074">Initialize buffer and variables</text><rect fill="#F1F1F1" height="33.9688" rx="12.5" ry="12.5" style="stroke:#181818;stroke-width:0.5;" width="151.8008" x="607.0251" y="191.9375"/><text fill="#000000" font-family="sans-serif" font-size="12" lengthAdjust="spacing" textLength="131.8008" x="617.0251" y="213.0762">va_start(args, format)</text><polygon fill="#F1F1F1" points="602.8828,301.6167,762.9683,301.6167,774.9683,313.6167,762.9683,325.6167,602.8828,325.6167,590.8828,313.6167,602.8828,301.6167" style="stroke:#181818;stroke-width:0.5;"/><text fill="#000000" font-family="sans-serif" font-size="11" lengthAdjust="spacing" textLength="160.0854" x="602.8828" y="317.4248">format[format_index] == '%'</text><text fill="#000000" font-family="sans-serif" font-size="11" lengthAdjust="spacing" textLength="19.0083" x="571.8745" y="311.0225">yes</text><text fill="#000000" font-family="sans-serif" font-size="11" lengthAdjust="spacing" textLength="13.7017" x="774.9683" y="311.0225">no</text><rect fill="#F1F1F1" height="33.9688" rx="12.5" ry="12.5" style="stroke:#181818;stroke-width:0.5;" width="119.3984" x="272.1577" y="335.6167"/><text fill="#000000" font-family="sans-serif" font-size="12" lengthAdjust="spacing" textLength="99.3984" x="282.1577" y="356.7554">format_index++</text><polygon fill="#F1F1F1" points="251.688,389.5854,412.0259,389.5854,424.0259,401.5854,412.0259,413.5854,251.688,413.5854,239.688,401.5854,251.688,389.5854" style="stroke:#181818;stroke-width:0.5;"/><text fill="#000000" font-family="sans-serif" font-size="11" lengthAdjust="spacing" textLength="160.3379" x="251.688" y="405.3936">format[format_index] == '\0'</text><text fill="#000000" font-family="sans-serif" font-size="11" lengthAdjust="spacing" textLength="19.0083" x="220.6797" y="398.9912">yes</text><text fill="#000000" font-family="sans-serif" font-size="11" lengthAdjust="spacing" textLength="13.7017" x="424.0259" y="398.9912">no</text><rect fill="#F1F1F1" height="33.9688" rx="12.5" ry="12.5" style="stroke:#181818;stroke-width:0.5;" width="98.5801" x="111.9453" y="423.5854"/><text fill="#000000" font-family="sans-serif" font-size="12" lengthAdjust="spacing" textLength="78.5801" x="121.9453" y="444.7241">va_end(args)</text><rect fill="#F1F1F1" height="33.9688" rx="12.5" ry="12.5" style="stroke:#181818;stroke-width:0.5;" width="72.9453" x="124.7627" y="482.6519"/><text fill="#000000" font-family="sans-serif" font-size="12" lengthAdjust="spacing" textLength="52.9453" x="134.7627" y="503.7905">return -1</text><rect fill="#F1F1F1" height="33.9688" rx="12.5" ry="12.5" style="stroke:#181818;stroke-width:0.5;" width="583.9063" x="220.5254" y="423.5854"/><text fill="#000000" font-family="sans-serif" font-size="12" lengthAdjust="spacing" textLength="563.9063" x="230.5254" y="444.7241">printed_chars += handle_format(&amp;format[format_index], types, &amp;args, buffer, &amp;buffer_index)</text><polygon fill="#F1F1F1" points="331.8569,522.6206,343.8569,534.6206,331.8569,546.6206,319.8569,534.6206,331.8569,522.6206" style="stroke:#181818;stroke-width:0.5;"/><rect fill="#F1F1F1" height="33.9688" rx="12.5" ry="12.5" style="stroke:#181818;stroke-width:0.5;" width="399.125" x="814.4316" y="335.6167"/><text fill="#000000" font-family="sans-serif" font-size="12" lengthAdjust="spacing" textLength="379.125" x="824.4316" y="356.7554">append_to_buffer(buffer, &amp;buffer_index, format[format_index])</text><rect fill="#F1F1F1" height="33.9688" rx="12.5" ry="12.5" style="stroke:#181818;stroke-width:0.5;" width="122.0469" x="952.9707" y="389.5854"/><text fill="#000000" font-family="sans-serif" font-size="12" lengthAdjust="spacing" textLength="102.0469" x="962.9707" y="410.7241">printed_chars++</text><polygon fill="#F1F1F1" points="682.9255,552.6206,694.9255,564.6206,682.9255,576.6206,670.9255,564.6206,682.9255,552.6206" style="stroke:#181818;stroke-width:0.5;"/><rect fill="#F1F1F1" height="33.9688" rx="12.5" ry="12.5" style="stroke:#181818;stroke-width:0.5;" width="119.3984" x="623.2263" y="596.6206"/><text fill="#000000" font-family="sans-serif" font-size="12" lengthAdjust="spacing" textLength="99.3984" x="633.2263" y="617.7593">format_index++</text><polygon fill="#F1F1F1" points="605.1602,245.9063,760.6909,245.9063,772.6909,257.9063,760.6909,269.9063,605.1602,269.9063,593.1602,257.9063,605.1602,245.9063" style="stroke:#181818;stroke-width:0.5;"/><text fill="#000000" font-family="sans-serif" font-size="11" lengthAdjust="spacing" textLength="22.5747" x="686.9255" y="280.1167">true</text><text fill="#000000" font-family="sans-serif" font-size="11" lengthAdjust="spacing" textLength="155.5308" x="605.1602" y="261.7144">format[format_index] != '\0'</text><rect fill="#F1F1F1" height="33.9688" rx="12.5" ry="12.5" style="stroke:#181818;stroke-width:0.5;" width="228.377" x="568.7371" y="672.5894"/><text fill="#000000" font-family="sans-serif" font-size="12" lengthAdjust="spacing" textLength="208.377" x="578.7371" y="693.728">flush_buffer(buffer, &amp;buffer_index)</text><rect fill="#F1F1F1" height="33.9688" rx="12.5" ry="12.5" style="stroke:#181818;stroke-width:0.5;" width="98.5801" x="633.6355" y="726.5581"/><text fill="#000000" font-family="sans-serif" font-size="12" lengthAdjust="spacing" textLength="78.5801" x="643.6355" y="747.6968">va_end(args)</text><rect fill="#F1F1F1" height="33.9688" rx="12.5" ry="12.5" style="stroke:#181818;stroke-width:0.5;" width="142.918" x="611.4666" y="780.5269"/><text fill="#000000" font-family="sans-serif" font-size="12" lengthAdjust="spacing" textLength="122.918" x="621.4666" y="801.6655">return printed_chars</text><polygon fill="#F1F1F1" points="342.1991,820.4956,354.1991,832.4956,342.1991,844.4956,330.1991,832.4956,342.1991,820.4956" style="stroke:#181818;stroke-width:0.5;"/><ellipse cx="342.1991" cy="875.4956" fill="none" rx="11" ry="11" style="stroke:#222222;stroke-width:1;"/><ellipse cx="342.1991" cy="875.4956" fill="#222222" rx="6" ry="6" style="stroke:#222222;stroke-width:1;"/><line style="stroke:#181818;stroke-width:1;" x1="342.1991" x2="342.1991" y1="30" y2="50"/><polygon fill="#181818" points="338.1991,40,342.1991,50,346.1991,40,342.1991,44" style="stroke:#181818;stroke-width:1;"/><line style="stroke:#181818;stroke-width:1;" x1="682.9255" x2="682.9255" y1="171.9375" y2="191.9375"/><polygon fill="#181818" points="678.9255,181.9375,682.9255,191.9375,686.9255,181.9375,682.9255,185.9375" style="stroke:#181818;stroke-width:1;"/><line style="stroke:#181818;stroke-width:1;" x1="161.2354" x2="161.2354" y1="457.5542" y2="482.6519"/><polygon fill="#181818" points="157.2354,472.6519,161.2354,482.6519,165.2354,472.6519,161.2354,476.6519" style="stroke:#181818;stroke-width:1;"/><line style="stroke:#181818;stroke-width:1;" x1="239.688" x2="161.2354" y1="401.5854" y2="401.5854"/><line style="stroke:#181818;stroke-width:1;" x1="161.2354" x2="161.2354" y1="401.5854" y2="423.5854"/><polygon fill="#181818" points="157.2354,413.5854,161.2354,423.5854,165.2354,413.5854,161.2354,417.5854" style="stroke:#181818;stroke-width:1;"/><line style="stroke:#181818;stroke-width:1;" x1="424.0259" x2="512.4785" y1="401.5854" y2="401.5854"/><line style="stroke:#181818;stroke-width:1;" x1="512.4785" x2="512.4785" y1="401.5854" y2="423.5854"/><polygon fill="#181818" points="508.4785,413.5854,512.4785,423.5854,516.4785,413.5854,512.4785,417.5854" style="stroke:#181818;stroke-width:1;"/><line style="stroke:#181818;stroke-width:1;" x1="161.2354" x2="161.2354" y1="516.6206" y2="534.6206"/><line style="stroke:#181818;stroke-width:1;" x1="161.2354" x2="319.8569" y1="534.6206" y2="534.6206"/><polygon fill="#181818" points="309.8569,530.6206,319.8569,534.6206,309.8569,538.6206,313.8569,534.6206" style="stroke:#181818;stroke-width:1;"/><line style="stroke:#181818;stroke-width:1;" x1="512.4785" x2="512.4785" y1="457.5542" y2="534.6206"/><line style="stroke:#181818;stroke-width:1;" x1="512.4785" x2="343.8569" y1="534.6206" y2="534.6206"/><polygon fill="#181818" points="353.8569,530.6206,343.8569,534.6206,353.8569,538.6206,349.8569,534.6206" style="stroke:#181818;stroke-width:1;"/><line style="stroke:#181818;stroke-width:1;" x1="331.8569" x2="331.8569" y1="369.5854" y2="389.5854"/><polygon fill="#181818" points="327.8569,379.5854,331.8569,389.5854,335.8569,379.5854,331.8569,383.5854" style="stroke:#181818;stroke-width:1;"/><line style="stroke:#181818;stroke-width:1;" x1="1013.9941" x2="1013.9941" y1="369.5854" y2="389.5854"/><polygon fill="#181818" points="1009.9941,379.5854,1013.9941,389.5854,1017.9941,379.5854,1013.9941,383.5854" style="stroke:#181818;stroke-width:1;"/><line style="stroke:#181818;stroke-width:1;" x1="590.8828" x2="331.8569" y1="313.6167" y2="313.6167"/><line style="stroke:#181818;stroke-width:1;" x1="331.8569" x2="331.8569" y1="313.6167" y2="335.6167"/><polygon fill="#181818" points="327.8569,325.6167,331.8569,335.6167,335.8569,325.6167,331.8569,329.6167" style="stroke:#181818;stroke-width:1;"/><line style="stroke:#181818;stroke-width:1;" x1="774.9683" x2="1013.9941" y1="313.6167" y2="313.6167"/><line style="stroke:#181818;stroke-width:1;" x1="1013.9941" x2="1013.9941" y1="313.6167" y2="335.6167"/><polygon fill="#181818" points="1009.9941,325.6167,1013.9941,335.6167,1017.9941,325.6167,1013.9941,329.6167" style="stroke:#181818;stroke-width:1;"/><line style="stroke:#181818;stroke-width:1;" x1="331.8569" x2="331.8569" y1="546.6206" y2="564.6206"/><line style="stroke:#181818;stroke-width:1;" x1="331.8569" x2="670.9255" y1="564.6206" y2="564.6206"/><polygon fill="#181818" points="660.9255,560.6206,670.9255,564.6206,660.9255,568.6206,664.9255,564.6206" style="stroke:#181818;stroke-width:1;"/><line style="stroke:#181818;stroke-width:1;" x1="1013.9941" x2="1013.9941" y1="423.5542" y2="564.6206"/><line style="stroke:#181818;stroke-width:1;" x1="1013.9941" x2="694.9255" y1="564.6206" y2="564.6206"/><polygon fill="#181818" points="704.9255,560.6206,694.9255,564.6206,704.9255,568.6206,700.9255,564.6206" style="stroke:#181818;stroke-width:1;"/><line style="stroke:#181818;stroke-width:1;" x1="682.9255" x2="682.9255" y1="576.6206" y2="596.6206"/><polygon fill="#181818" points="678.9255,586.6206,682.9255,596.6206,686.9255,586.6206,682.9255,590.6206" style="stroke:#181818;stroke-width:1;"/><line style="stroke:#181818;stroke-width:1;" x1="682.9255" x2="682.9255" y1="269.9063" y2="301.6167"/><polygon fill="#181818" points="678.9255,291.6167,682.9255,301.6167,686.9255,291.6167,682.9255,295.6167" style="stroke:#181818;stroke-width:1;"/><line style="stroke:#181818;stroke-width:1;" x1="682.9255" x2="682.9255" y1="630.5894" y2="640.5894"/><line style="stroke:#181818;stroke-width:1;" x1="682.9255" x2="1227.5566" y1="640.5894" y2="640.5894"/><polygon fill="#181818" points="1223.5566,462.6519,1227.5566,452.6519,1231.5566,462.6519,1227.5566,458.6519" style="stroke:#181818;stroke-width:1;"/><line style="stroke:#181818;stroke-width:1;" x1="1227.5566" x2="1227.5566" y1="257.9063" y2="640.5894"/><line style="stroke:#181818;stroke-width:1;" x1="1227.5566" x2="772.6909" y1="257.9063" y2="257.9063"/><polygon fill="#181818" points="782.6909,253.9063,772.6909,257.9063,782.6909,261.9063,778.6909,257.9063" style="stroke:#181818;stroke-width:1;"/><line style="stroke:#181818;stroke-width:1;" x1="593.1602" x2="97.9453" y1="257.9063" y2="257.9063"/><polygon fill="#181818" points="93.9453,448.6519,97.9453,458.6519,101.9453,448.6519,97.9453,452.6519" style="stroke:#181818;stroke-width:1;"/><line style="stroke:#181818;stroke-width:1;" x1="97.9453" x2="97.9453" y1="257.9063" y2="652.5894"/><line style="stroke:#181818;stroke-width:1;" x1="97.9453" x2="682.9255" y1="652.5894" y2="652.5894"/><line style="stroke:#181818;stroke-width:1;" x1="682.9255" x2="682.9255" y1="652.5894" y2="672.5894"/><polygon fill="#181818" points="678.9255,662.5894,682.9255,672.5894,686.9255,662.5894,682.9255,666.5894" style="stroke:#181818;stroke-width:1;"/><line style="stroke:#181818;stroke-width:1;" x1="682.9255" x2="682.9255" y1="225.9063" y2="245.9063"/><polygon fill="#181818" points="678.9255,235.9063,682.9255,245.9063,686.9255,235.9063,682.9255,239.9063" style="stroke:#181818;stroke-width:1;"/><line style="stroke:#181818;stroke-width:1;" x1="682.9255" x2="682.9255" y1="706.5581" y2="726.5581"/><polygon fill="#181818" points="678.9255,716.5581,682.9255,726.5581,686.9255,716.5581,682.9255,720.5581" style="stroke:#181818;stroke-width:1;"/><line style="stroke:#181818;stroke-width:1;" x1="682.9255" x2="682.9255" y1="760.5269" y2="780.5269"/><polygon fill="#181818" points="678.9255,770.5269,682.9255,780.5269,686.9255,770.5269,682.9255,774.5269" style="stroke:#181818;stroke-width:1;"/><line style="stroke:#181818;stroke-width:1;" x1="284.7704" x2="47.4727" y1="115.9688" y2="115.9688"/><line style="stroke:#181818;stroke-width:1;" x1="47.4727" x2="47.4727" y1="115.9688" y2="137.9688"/><polygon fill="#181818" points="43.4727,127.9688,47.4727,137.9688,51.4727,127.9688,47.4727,131.9688" style="stroke:#181818;stroke-width:1;"/><line style="stroke:#181818;stroke-width:1;" x1="399.6278" x2="682.9255" y1="115.9688" y2="115.9688"/><line style="stroke:#181818;stroke-width:1;" x1="682.9255" x2="682.9255" y1="115.9688" y2="137.9688"/><polygon fill="#181818" points="678.9255,127.9688,682.9255,137.9688,686.9255,127.9688,682.9255,131.9688" style="stroke:#181818;stroke-width:1;"/><line style="stroke:#181818;stroke-width:1;" x1="47.4727" x2="47.4727" y1="171.9375" y2="832.4956"/><line style="stroke:#181818;stroke-width:1;" x1="47.4727" x2="330.1991" y1="832.4956" y2="832.4956"/><polygon fill="#181818" points="320.1991,828.4956,330.1991,832.4956,320.1991,836.4956,324.1991,832.4956" style="stroke:#181818;stroke-width:1;"/><line style="stroke:#181818;stroke-width:1;" x1="682.9255" x2="682.9255" y1="814.4956" y2="832.4956"/><line style="stroke:#181818;stroke-width:1;" x1="682.9255" x2="354.1991" y1="832.4956" y2="832.4956"/><polygon fill="#181818" points="364.1991,828.4956,354.1991,832.4956,364.1991,836.4956,360.1991,832.4956" style="stroke:#181818;stroke-width:1;"/><line style="stroke:#181818;stroke-width:1;" x1="342.1991" x2="342.1991" y1="83.9688" y2="103.9688"/><polygon fill="#181818" points="338.1991,93.9688,342.1991,103.9688,346.1991,93.9688,342.1991,97.9688" style="stroke:#181818;stroke-width:1;"/><line style="stroke:#181818;stroke-width:1;" x1="342.1991" x2="342.1991" y1="844.4956" y2="864.4956"/><polygon fill="#181818" points="338.1991,854.4956,342.1991,864.4956,346.1991,854.4956,342.1991,858.4956" style="stroke:#181818;stroke-width:1;"/><!--SRC=[VPB1JiCm38RlVGfpO4rOcU3QgW-0D77Z12ZALeT6AccLf8FnzAGrrPfkp9SsiMD_zc_dfVL9aelEQkCLsxV6UTZNqiATQksdz1biDXjU95e1enieItX-sMuv-1eDi2Cwda2mtABlhO7xnoB1nY4mq_vvdepsMZRw1s7NAuKMfAdW8AsMkmPTGL47ATm0nAJzS1bGEKxEhretE26yqaTeK-7tEzoKaBuzf1oq0-PjZrHri1Fsuare8hrDptgOB9z7hzT5vBoQT0Jv9-lK9Pfgx94Nv-xP4EVtyK2Z5wDsM8b1DWVh4kemt0O5iR7L9TGC_B73CEGLpPfK2KVweQW5Ng3MAhaEbCkk2t72ju8oiOkP9t5Zg4MzkB6v2379HQr2oBWoj5cgwLrzbOYVTd2XpgH8H1CsV6Hmlkr-0G00]--></g></svg>